<svg width="100" height="100" viewBox="0 0 100 100" fill="none" xmlns="http://www.w3.org/2000/svg">
<g clip-path="url(#clip0_246_2416)">
<path d="M5 20H95V80H5V20Z" fill="#003399"/>
<path d="M50 26.6666L48.97 29.8368L50.5551 30.3518L50 26.6666Z" fill="#FFCC00"/>
<path d="M50 26.6666L51.03 29.8368L49.4449 30.3518L50 26.6666Z" fill="#FFCC00"/>
<path d="M53.1703 28.97H49.837V30.6366L53.1703 28.97Z" fill="#FFCC00"/>
<path d="M53.1703 28.9699L50.4736 30.9292L49.4939 29.5808L53.1703 28.9699Z" fill="#FFCC00"/>
<path d="M51.9593 32.6968L50.9293 29.5266L49.3442 30.0417L51.9593 32.6968Z" fill="#FFCC00"/>
<path d="M51.9594 32.6968L49.2626 30.7376L50.2423 29.3892L51.9594 32.6968Z" fill="#FFCC00"/>
<path d="M46.8297 28.97H50.163V30.6366L46.8297 28.97Z" fill="#FFCC00"/>
<path d="M46.8297 28.9699L49.5264 30.9292L50.5061 29.5808L46.8297 28.9699Z" fill="#FFCC00"/>
<path d="M48.0406 32.6968L49.0707 29.5266L50.6558 30.0417L48.0406 32.6968Z" fill="#FFCC00"/>
<path d="M48.0406 32.6968L50.7373 30.7376L49.7577 29.3892L48.0406 32.6968Z" fill="#FFCC00"/>
<path d="M50 66.6666L48.97 69.8368L50.5551 70.3518L50 66.6666Z" fill="#FFCC00"/>
<path d="M50 66.6666L51.03 69.8368L49.4449 70.3518L50 66.6666Z" fill="#FFCC00"/>
<path d="M53.1703 68.97H49.837V70.6366L53.1703 68.97Z" fill="#FFCC00"/>
<path d="M53.1703 68.9699L50.4736 70.9292L49.4939 69.5808L53.1703 68.9699Z" fill="#FFCC00"/>
<path d="M51.9593 72.6968L50.9293 69.5266L49.3442 70.0417L51.9593 72.6968Z" fill="#FFCC00"/>
<path d="M51.9594 72.6968L49.2626 70.7376L50.2423 69.3892L51.9594 72.6968Z" fill="#FFCC00"/>
<path d="M46.8297 68.97H50.163V70.6366L46.8297 68.97Z" fill="#FFCC00"/>
<path d="M46.8297 68.9699L49.5264 70.9292L50.5061 69.5808L46.8297 68.9699Z" fill="#FFCC00"/>
<path d="M48.0406 72.6968L49.0707 69.5266L50.6558 70.0417L48.0406 72.6968Z" fill="#FFCC00"/>
<path d="M48.0406 72.6968L50.7373 70.7376L49.7577 69.3892L48.0406 72.6968Z" fill="#FFCC00"/>
<path d="M30 46.6666L28.97 49.8368L30.5551 50.3518L30 46.6666Z" fill="#FFCC00"/>
<path d="M30 46.6666L31.03 49.8368L29.4449 50.3518L30 46.6666Z" fill="#FFCC00"/>
<path d="M33.1703 48.97H29.837V50.6366L33.1703 48.97Z" fill="#FFCC00"/>
<path d="M33.1703 48.9699L30.4736 50.9292L29.4939 49.5808L33.1703 48.9699Z" fill="#FFCC00"/>
<path d="M31.9593 52.6968L30.9293 49.5266L29.3442 50.0417L31.9593 52.6968Z" fill="#FFCC00"/>
<path d="M31.9594 52.6968L29.2626 50.7376L30.2423 49.3892L31.9594 52.6968Z" fill="#FFCC00"/>
<path d="M26.8297 48.97H30.163V50.6366L26.8297 48.97Z" fill="#FFCC00"/>
<path d="M26.8297 48.9699L29.5264 50.9292L30.5061 49.5808L26.8297 48.9699Z" fill="#FFCC00"/>
<path d="M28.0406 52.6968L29.0707 49.5266L30.6558 50.0417L28.0406 52.6968Z" fill="#FFCC00"/>
<path d="M28.0406 52.6968L30.7373 50.7376L29.7577 49.3892L28.0406 52.6968Z" fill="#FFCC00"/>
<path d="M38.0403 35.3809L40.737 33.4216L39.7573 32.0732L38.0403 35.3809Z" fill="#FFCC00"/>
<path d="M38.0403 35.3809L39.0704 32.2107L40.6554 32.7257L38.0403 35.3809Z" fill="#FFCC00"/>
<path d="M36.8293 31.6539L39.5261 33.6132L40.5057 32.2648L36.8293 31.6539Z" fill="#FFCC00"/>
<path d="M36.8293 31.6539H40.1627V33.3206L36.8293 31.6539Z" fill="#FFCC00"/>
<path d="M39.9996 29.3506L38.9696 32.5208L40.5547 33.0358L39.9996 29.3506Z" fill="#FFCC00"/>
<path d="M39.9996 29.3506L41.0297 32.5208L39.4446 33.0358L39.9996 29.3506Z" fill="#FFCC00"/>
<path d="M41.959 35.3809L39.2623 33.4216L40.2419 32.0732L41.959 35.3809Z" fill="#FFCC00"/>
<path d="M41.959 35.3809L40.9289 32.2107L39.3438 32.7257L41.959 35.3809Z" fill="#FFCC00"/>
<path d="M43.1699 31.6539L40.4732 33.6132L39.4936 32.2648L43.1699 31.6539Z" fill="#FFCC00"/>
<path d="M43.17 31.6539H39.8366V33.3206L43.17 31.6539Z" fill="#FFCC00"/>
<path d="M34.6434 42.6965L33.6133 39.5263L32.0282 40.0413L34.6434 42.6965Z" fill="#FFCC00"/>
<path d="M34.6434 42.6965L31.9467 40.7372L32.9263 39.3888L34.6434 42.6965Z" fill="#FFCC00"/>
<path d="M30.7247 42.6965L33.4214 40.7372L32.4417 39.3889L30.7247 42.6965Z" fill="#FFCC00"/>
<path d="M30.7247 42.6965L31.7547 39.5263L33.3398 40.0414L30.7247 42.6965Z" fill="#FFCC00"/>
<path d="M29.5137 38.9695L32.2104 40.9288L33.1901 39.5805L29.5137 38.9695Z" fill="#FFCC00"/>
<path d="M29.5137 38.9696H32.847V40.6363L29.5137 38.9696Z" fill="#FFCC00"/>
<path d="M35.8543 38.9695L33.1576 40.9288L32.1779 39.5804L35.8543 38.9695Z" fill="#FFCC00"/>
<path d="M35.8543 38.9695H32.521V40.6362L35.8543 38.9695Z" fill="#FFCC00"/>
<path d="M32.684 36.6662L33.7141 39.8364L32.129 40.3514L32.684 36.6662Z" fill="#FFCC00"/>
<path d="M32.684 36.6662L31.654 39.8364L33.2391 40.3514L32.684 36.6662Z" fill="#FFCC00"/>
<path d="M35.8488 58.9709L32.5155 58.9709L32.5155 60.6376L35.8488 58.9709Z" fill="#FFCC00"/>
<path d="M35.8488 58.9709L33.1521 60.9302L32.1725 59.5818L35.8488 58.9709Z" fill="#FFCC00"/>
<path d="M34.6378 62.6979L33.6078 59.5277L32.0227 60.0427L34.6378 62.6979Z" fill="#FFCC00"/>
<path d="M34.6379 62.6979L31.9412 60.7386L32.9208 59.3902L34.6379 62.6979Z" fill="#FFCC00"/>
<path d="M30.7191 62.6979L33.4159 60.7386L32.4362 59.3902L30.7191 62.6979Z" fill="#FFCC00"/>
<path d="M30.7192 62.6979L31.7492 59.5277L33.3343 60.0427L30.7192 62.6979Z" fill="#FFCC00"/>
<path d="M32.6785 56.6675L33.7086 59.8377L32.1235 60.3528L32.6785 56.6675Z" fill="#FFCC00"/>
<path d="M32.6785 56.6675L31.6485 59.8377L33.2336 60.3528L32.6785 56.6675Z" fill="#FFCC00"/>
<path d="M29.5082 58.9709H32.8415L32.8415 60.6376L29.5082 58.9709Z" fill="#FFCC00"/>
<path d="M29.5082 58.9709L32.2049 60.9302L33.1846 59.5818L29.5082 58.9709Z" fill="#FFCC00"/>
<path d="M43.1718 66.2917L39.8384 66.2917L39.8384 67.9584L43.1718 66.2917Z" fill="#FFCC00"/>
<path d="M43.1718 66.2917L40.475 68.251L39.4954 66.9026L43.1718 66.2917Z" fill="#FFCC00"/>
<path d="M41.9608 70.0187L40.9307 66.8485L39.3456 67.3635L41.9608 70.0187Z" fill="#FFCC00"/>
<path d="M41.9608 70.0187L39.2641 68.0594L40.2437 66.711L41.9608 70.0187Z" fill="#FFCC00"/>
<path d="M38.0421 70.0187L40.7388 68.0594L39.7592 66.711L38.0421 70.0187Z" fill="#FFCC00"/>
<path d="M38.0421 70.0187L39.0722 66.8485L40.6573 67.3635L38.0421 70.0187Z" fill="#FFCC00"/>
<path d="M40.0014 63.9883L41.0315 67.1585L39.4464 67.6736L40.0014 63.9883Z" fill="#FFCC00"/>
<path d="M40.0015 63.9883L38.9714 67.1585L40.5565 67.6736L40.0015 63.9883Z" fill="#FFCC00"/>
<path d="M36.8311 66.2917H40.1645L40.1645 67.9584L36.8311 66.2917Z" fill="#FFCC00"/>
<path d="M36.8311 66.2917L39.5279 68.251L40.5075 66.9026L36.8311 66.2917Z" fill="#FFCC00"/>
<path d="M70 46.6666L71.03 49.8368L69.4449 50.3518L70 46.6666Z" fill="#FFCC00"/>
<path d="M70 46.6666L68.9699 49.8368L70.555 50.3518L70 46.6666Z" fill="#FFCC00"/>
<path d="M66.8297 48.97H70.163V50.6366L66.8297 48.97Z" fill="#FFCC00"/>
<path d="M66.8297 48.9699L69.5264 50.9292L70.5061 49.5808L66.8297 48.9699Z" fill="#FFCC00"/>
<path d="M68.0406 52.6968L69.0707 49.5266L70.6558 50.0417L68.0406 52.6968Z" fill="#FFCC00"/>
<path d="M68.0406 52.6968L70.7373 50.7376L69.7577 49.3892L68.0406 52.6968Z" fill="#FFCC00"/>
<path d="M73.1703 48.97H69.837V50.6366L73.1703 48.97Z" fill="#FFCC00"/>
<path d="M73.1703 48.9699L70.4736 50.9292L69.4939 49.5808L73.1703 48.9699Z" fill="#FFCC00"/>
<path d="M71.9593 52.6968L70.9293 49.5266L69.3442 50.0417L71.9593 52.6968Z" fill="#FFCC00"/>
<path d="M71.9594 52.6968L69.2626 50.7376L70.2423 49.3892L71.9594 52.6968Z" fill="#FFCC00"/>
<path d="M61.9597 35.3809L59.263 33.4216L60.2426 32.0732L61.9597 35.3809Z" fill="#FFCC00"/>
<path d="M61.9597 35.3809L60.9296 32.2107L59.3445 32.7257L61.9597 35.3809Z" fill="#FFCC00"/>
<path d="M63.1706 31.6539L60.4739 33.6132L59.4943 32.2648L63.1706 31.6539Z" fill="#FFCC00"/>
<path d="M63.1707 31.6539H59.8373V33.3206L63.1707 31.6539Z" fill="#FFCC00"/>
<path d="M60.0003 29.3506L61.0304 32.5208L59.4453 33.0358L60.0003 29.3506Z" fill="#FFCC00"/>
<path d="M60.0004 29.3506L58.9703 32.5208L60.5554 33.0358L60.0004 29.3506Z" fill="#FFCC00"/>
<path d="M58.041 35.3809L60.7377 33.4216L59.7581 32.0732L58.041 35.3809Z" fill="#FFCC00"/>
<path d="M58.041 35.3809L59.0711 32.2107L60.6562 32.7257L58.041 35.3809Z" fill="#FFCC00"/>
<path d="M56.83 31.6539L59.5268 33.6132L60.5064 32.2648L56.83 31.6539Z" fill="#FFCC00"/>
<path d="M56.83 31.6539H60.1634V33.3206L56.83 31.6539Z" fill="#FFCC00"/>
<path d="M65.3566 42.6965L66.3867 39.5263L67.9718 40.0413L65.3566 42.6965Z" fill="#FFCC00"/>
<path d="M65.3566 42.6965L68.0533 40.7372L67.0737 39.3888L65.3566 42.6965Z" fill="#FFCC00"/>
<path d="M69.2753 42.6965L66.5786 40.7372L67.5582 39.3889L69.2753 42.6965Z" fill="#FFCC00"/>
<path d="M69.2753 42.6965L68.2452 39.5263L66.6601 40.0414L69.2753 42.6965Z" fill="#FFCC00"/>
<path d="M70.4863 38.9695L67.7895 40.9288L66.8099 39.5805L70.4863 38.9695Z" fill="#FFCC00"/>
<path d="M70.4863 38.9696H67.1529V40.6363L70.4863 38.9696Z" fill="#FFCC00"/>
<path d="M64.1457 38.9695L66.8424 40.9288L67.822 39.5804L64.1457 38.9695Z" fill="#FFCC00"/>
<path d="M64.1457 38.9695H67.479V40.6362L64.1457 38.9695Z" fill="#FFCC00"/>
<path d="M67.316 36.6662L66.2859 39.8364L67.871 40.3514L67.316 36.6662Z" fill="#FFCC00"/>
<path d="M67.3159 36.6662L68.346 39.8364L66.7609 40.3514L67.3159 36.6662Z" fill="#FFCC00"/>
<path d="M64.1512 58.9709L67.4845 58.9709L67.4845 60.6376L64.1512 58.9709Z" fill="#FFCC00"/>
<path d="M64.1512 58.9709L66.8479 60.9302L67.8275 59.5818L64.1512 58.9709Z" fill="#FFCC00"/>
<path d="M65.3621 62.6979L66.3922 59.5277L67.9773 60.0427L65.3621 62.6979Z" fill="#FFCC00"/>
<path d="M65.3621 62.6979L68.0588 60.7386L67.0792 59.3902L65.3621 62.6979Z" fill="#FFCC00"/>
<path d="M69.2809 62.6979L66.5841 60.7386L67.5638 59.3902L69.2809 62.6979Z" fill="#FFCC00"/>
<path d="M69.2808 62.6979L68.2508 59.5277L66.6657 60.0427L69.2808 62.6979Z" fill="#FFCC00"/>
<path d="M67.3215 56.6675L66.2914 59.8377L67.8765 60.3528L67.3215 56.6675Z" fill="#FFCC00"/>
<path d="M67.3215 56.6675L68.3515 59.8377L66.7664 60.3528L67.3215 56.6675Z" fill="#FFCC00"/>
<path d="M70.4918 58.9709H67.1585L67.1585 60.6376L70.4918 58.9709Z" fill="#FFCC00"/>
<path d="M70.4918 58.9709L67.7951 60.9302L66.8154 59.5818L70.4918 58.9709Z" fill="#FFCC00"/>
<path d="M56.8282 66.2917L60.1615 66.2917L60.1615 67.9584L56.8282 66.2917Z" fill="#FFCC00"/>
<path d="M56.8282 66.2917L59.525 68.251L60.5046 66.9026L56.8282 66.2917Z" fill="#FFCC00"/>
<path d="M58.0392 70.0187L59.0692 66.8485L60.6543 67.3635L58.0392 70.0187Z" fill="#FFCC00"/>
<path d="M58.0392 70.0187L60.7359 68.0594L59.7562 66.711L58.0392 70.0187Z" fill="#FFCC00"/>
<path d="M61.9579 70.0187L59.2612 68.0594L60.2408 66.711L61.9579 70.0187Z" fill="#FFCC00"/>
<path d="M61.9579 70.0187L60.9278 66.8485L59.3427 67.3635L61.9579 70.0187Z" fill="#FFCC00"/>
<path d="M59.9986 63.9883L58.9685 67.1585L60.5536 67.6736L59.9986 63.9883Z" fill="#FFCC00"/>
<path d="M59.9985 63.9883L61.0286 67.1585L59.4435 67.6736L59.9985 63.9883Z" fill="#FFCC00"/>
<path d="M63.1689 66.2917H59.8355L59.8355 67.9584L63.1689 66.2917Z" fill="#FFCC00"/>
<path d="M63.1688 66.2917L60.4721 68.251L59.4925 66.9026L63.1688 66.2917Z" fill="#FFCC00"/>
</g>
<defs>
<clipPath id="clip0_246_2416">
<rect width="90" height="60" fill="white" transform="translate(5 20)"/>
</clipPath>
</defs>
</svg>
