<svg width="100" height="100" viewBox="0 0 100 100" fill="none" xmlns="http://www.w3.org/2000/svg">
<g clip-path="url(#clip0_246_3013)">
<path d="M5 17.2635H95V82.7365H5V17.2635Z" fill="white"/>
<path d="M5 23.4016H95V33.6318H5V23.4016ZM5 66.3682H95V76.5984H5V66.3682Z" fill="#0038B8"/>
<path fill-rule="evenodd" clip-rule="evenodd" d="M50 35.8247L54.0909 42.9123H62.2727L58.1818 50L62.2727 57.0877H54.0909L50 64.1753L45.9091 57.0877H37.7273L41.8182 50L37.7273 42.9123H45.9091L50 35.8247ZM44.6101 45.163H41.6244L43.1172 47.7494L44.6101 45.163ZM44.4163 50L47.2082 45.163H52.7918L55.5837 50L52.7918 54.8371H47.2082L44.4163 50ZM43.1172 52.2507L41.6244 54.8371H44.6101L43.1172 52.2507ZM48.5072 57.0877L50 59.6741L51.4928 57.0877H48.5072ZM55.3899 54.8371H58.3756L56.8828 52.2507L55.3899 54.8371ZM56.8828 47.7494L58.3756 45.163H55.3899L56.8828 47.7494ZM51.4928 42.9123H48.5072L50 40.326L51.4928 42.9123Z" fill="#0038B8"/>
</g>
<defs>
<clipPath id="clip0_246_3013">
<rect width="90" height="65.473" fill="white" transform="translate(5 17.2635)"/>
</clipPath>
</defs>
</svg>
