<svg width="100" height="100" viewBox="0 0 100 100" fill="none" xmlns="http://www.w3.org/2000/svg">
<g clip-path="url(#clip0_246_3179)">
<path d="M5 80H95V20H5V80Z" fill="#005430"/>
<path d="M72.5 43.8324C72.4937 42.7784 72.0848 39.9393 71.981 38.9869C71.8774 38.0344 71.773 37.1704 71.7982 36.968C71.8229 36.7728 72.1234 37.2395 72.2822 37.2772C72.3644 37.2608 72.3277 36.966 72.1784 36.7142C72.0774 36.5433 71.7328 35.9042 71.5238 35.5296C71.4255 35.3523 71.4035 35.2496 71.3562 35.2277C71.3091 35.206 70.9286 35.9735 70.9702 36.0587C71.074 36.2147 71.1452 36.2891 71.1614 36.5646C71.1778 36.8401 71.3203 38.8073 71.5019 40.2984C71.6386 41.4233 71.9385 43.8468 71.9492 45.3536C71.9522 45.8451 71.8977 46.3136 71.8322 46.5094C71.6643 46.8168 71.4019 47.0941 70.4246 47.6659C69.326 48.3089 67.8603 48.844 67.2303 49.2021C66.8386 49.4255 66.9684 49.4553 67.3095 49.3576C67.6496 49.2598 69.4087 48.9466 70.2633 48.5855C71.0655 48.2456 71.5863 47.6771 71.9815 46.8477C72.4696 45.8223 72.5068 44.9522 72.5 43.8324ZM69.0987 35.8261C69.1837 35.7932 69.8867 35.757 70.0761 35.796C69.9517 35.9738 69.1086 36.3673 69.1051 36.4395C69.1281 36.4881 69.6874 36.3495 69.8638 36.2725C69.9791 36.2032 70.0561 36.0958 70.1415 36.0067C70.3431 35.7747 70.5822 35.3445 70.522 35.2905C70.4242 35.2034 69.4658 35.2576 69.3395 35.2755C69.2549 35.2877 69.0401 35.6727 69.0007 35.7715C68.9621 35.8702 69.0138 35.859 69.0987 35.8261Z" fill="white"/>
<path d="M70.535 42.0733C70.7025 41.5071 70.6967 40.9037 70.5183 40.3408C70.3134 39.6882 69.8045 39.2904 69.4375 39.0865L69.372 39.7148C69.372 39.7148 69.8867 39.9706 70.2386 40.6146C70.4616 41.0231 70.5544 41.6007 70.3783 42.2446C70.349 42.4045 70.4633 42.3164 70.535 42.0732M65.09 45.224C65.2407 44.7142 65.2356 44.1709 65.0752 43.664C64.8906 43.0763 64.4323 42.718 64.1017 42.535L64.0426 43.1006C64.0426 43.1006 64.506 43.331 64.8229 43.9104C65.0239 44.2779 65.1073 44.7988 64.9492 45.3784C64.9229 45.5218 65.0256 45.4428 65.09 45.224ZM46.1862 36.6691C46.3982 37.0568 46.4862 37.6059 46.3194 38.2174C46.2914 38.3691 46.3994 38.2858 46.4681 38.0549C46.6268 37.5169 46.6211 36.9438 46.4517 36.409C46.2569 35.7889 45.7735 35.4113 45.4247 35.218L45.3632 35.8147C45.3632 35.8147 45.8521 36.0575 46.1862 36.6691ZM33.425 36.8697C33.603 37.2871 33.615 37.8506 33.3275 38.4442C33.2716 38.5933 33.4077 38.5227 33.522 38.2996C33.7553 37.8435 33.8863 37.2726 33.768 36.6421C33.6466 35.9938 33.1596 35.5519 32.795 35.3126L32.6296 35.9049C32.6296 35.9049 33.1442 36.2119 33.425 36.8697Z" fill="white"/>
<path d="M36.9526 46.1983C37.1789 45.7783 37.2731 45.4958 37.3736 44.9983C37.4616 44.5608 37.4673 44.0553 37.4356 43.5407C38.1126 43.2647 38.9196 42.8066 39.1907 42.7729C39.0053 43.4096 39.4479 44.0966 40.342 44.0069C40.4104 44.7269 40.469 45.3593 40.5047 45.7343C40.5775 46.5032 40.5666 47.4721 40.5644 47.6405C40.5614 47.8096 40.6838 47.7777 40.8095 47.4009C40.9771 46.8964 41.0289 45.5791 40.9681 44.7079C40.9536 44.4901 40.9289 44.1961 40.8991 43.8611C41.4787 43.5929 41.5751 43.0753 41.7917 42.8547C41.9873 43.5397 43.0637 43.6327 43.396 43.486C43.808 43.304 43.943 42.9765 44.049 42.2165C44.1553 41.4568 43.8458 41.1509 43.7351 41.0681C43.7241 41.1601 43.4546 42.0529 43.4546 42.0529C43.4546 42.0529 43.7102 42.3229 43.7231 42.4556C43.5149 42.644 43.0758 42.6556 42.7071 42.5356C42.3381 42.4156 42.2251 42.1948 42.247 42.0466C42.2683 41.898 42.4072 41.7627 42.4119 41.5816C42.4159 41.4006 42.3292 41.453 42.1815 41.6133C42.0339 41.7739 41.9385 41.9183 41.7342 42.2629C41.5672 42.5447 41.296 42.8886 40.8177 42.9869C40.7388 42.1593 40.6487 41.2788 40.5885 40.7257C40.557 40.4337 40.2423 37.9104 40.2198 37.6281C40.2003 37.3821 40.1639 37.0922 40.1699 36.956C40.1759 36.8476 40.2439 36.8906 40.3491 37.004C40.4545 37.1173 40.6389 37.3148 40.6706 37.2994C40.778 37.2467 40.6682 36.9187 40.5276 36.625C40.3874 36.3305 39.9086 35.1686 39.8081 35.1207C39.7563 35.0964 39.4331 35.8116 39.414 35.9524C39.464 36.0404 39.595 36.179 39.5997 36.5731C39.6013 36.683 39.672 37.7192 39.77 38.6991C39.8558 39.5643 39.9694 40.3854 39.9804 40.4808C40.0584 41.1413 40.1532 42.0722 40.2434 42.9874C39.7243 42.8886 39.5862 42.5463 39.5977 42.351C39.6109 42.1307 39.7103 41.882 39.6627 41.8258C39.5627 41.7658 38.9677 42.0983 38.1381 42.4556C37.883 42.5658 37.6249 42.6692 37.3643 42.7656C37.292 42.1418 37.1967 41.5487 37.1583 41.0952L37.1537 41.0448C37.6993 41.0096 38.146 40.7341 38.3493 40.4718C38.6032 40.1438 38.7807 39.4688 38.7979 38.9518C38.8152 38.4341 38.3975 37.4878 38.2981 37.1869C38.1978 36.8859 38.1461 36.6771 38.1373 36.5731C38.1283 36.469 38.363 36.6936 38.5106 36.7377C38.6106 36.7577 38.5761 36.5411 38.4539 36.3925C38.3326 36.2443 37.6763 35.2484 37.6303 35.3182C37.6021 35.3592 37.3391 36.0919 37.3219 36.2041C37.4254 36.2725 37.5465 36.4609 37.5549 36.6414C37.5637 36.822 37.7083 37.6159 37.8686 38.0571C38.0294 38.4982 38.3717 39.3445 38.3934 39.5773C38.1488 39.7497 37.5919 40.0417 37.0411 40.0243C36.9469 39.2523 36.8274 38.3559 36.7636 37.721C36.739 37.4756 36.7373 37.2138 36.7412 37.077C36.7442 36.9686 36.8222 36.9836 36.9296 37.095C37.0376 37.2064 37.203 37.3685 37.2369 37.3568C37.3109 37.3323 37.2468 37.0864 37.1003 36.7944C36.9538 36.5024 36.3713 35.2674 36.2693 35.2213C36.2175 35.1977 35.9567 35.8913 35.9403 36.0329C35.9923 36.1205 36.1257 36.256 36.1388 36.65C36.1493 36.9638 36.3021 38.5015 36.433 39.8558C35.888 39.574 35.702 39.1711 35.6346 38.4947C35.5875 38.0231 35.5828 37.1545 35.4146 36.4279C35.3199 36.0172 35.1202 35.5999 34.8836 35.3783C34.8271 35.5148 34.5751 36.3527 34.5751 36.3527C34.6573 36.5933 34.9128 37.4034 34.9041 38.1054C34.8956 38.8074 34.8403 39.4937 34.0536 39.9664C33.2675 40.4395 32.0883 40.2514 31.7971 39.5134C31.506 38.775 32.1532 36.9235 32.1447 36.4864C32.136 36.0494 32.0579 35.9891 31.8752 36.0613C31.6928 36.1334 31.3194 36.5548 30.9979 37.2403C30.6763 37.9263 30.5333 38.776 30.3506 39.3536C30.1685 39.9313 29.8768 40.5166 29.4254 40.4841C28.974 40.4522 28.731 40.0391 28.5921 39.4418C28.453 38.8438 28.5381 38.0565 28.576 37.8548C28.6702 37.3492 28.452 37.4528 28.3182 38.2465C28.2355 38.736 28.1533 39.5177 28.4445 40.336C28.7351 41.1542 29.2306 41.4593 29.6648 41.3548C30.0992 41.2507 30.481 40.2318 30.6158 39.7743C30.7503 39.3174 31.352 37.2883 31.6928 37.1884C31.7404 37.4171 31.4279 38.1543 31.3279 39.0166C31.2282 39.8789 31.4608 41.0372 32.5553 41.2376C33.6498 41.4381 34.3924 40.7282 34.6617 40.2354C34.9312 39.7419 35.0569 39.2244 35.0873 38.9639C35.1223 39.6254 35.5738 40.6583 36.4506 40.9529L36.5409 40.9789C36.5949 41.5204 36.6829 42.2272 36.7636 42.9694C36.5937 43.022 36.4221 43.0692 36.2492 43.1107C36.2273 43.0396 36.2032 42.9699 36.1739 42.9059C35.9063 42.3302 35.4634 41.7997 34.8496 41.8364C34.2226 41.8736 33.5389 42.7104 33.5688 43.3214C33.5885 43.7324 33.8148 44.0698 34.6376 44.1561C35.0134 44.1959 35.4124 44.1541 35.8246 44.0641C35.8827 44.2341 35.9194 44.4031 35.9236 44.557C35.6628 44.8619 33.5052 46.4892 31.8897 46.6457C30.2742 46.802 29.7815 45.9551 29.7653 45.105C29.7533 44.4582 30.1422 43.8127 30.4155 43.366C30.8067 43.0798 31.1277 42.722 31.3304 42.446C31.3854 42.48 31.4378 42.5113 31.4876 42.5404C31.6807 42.6526 31.7577 42.8203 31.7577 42.8203C31.7933 42.7656 31.9593 42.4667 31.8944 42.3206C31.8645 42.2846 31.7185 42.1948 31.543 42.0881C31.7273 41.6288 31.7248 41.1701 31.486 41.0681C31.219 40.9544 30.8702 41.2704 30.7199 41.4631C30.6508 41.5516 30.6127 41.6603 30.6114 41.7726C30.6103 41.8954 30.6681 42.0063 30.8111 42.1051C30.9535 42.2024 31.0858 42.2905 31.2101 42.37C30.8571 42.7407 30.0228 43.284 29.5122 43.603C29.4933 43.5562 29.4185 43.6056 29.318 43.724L29.1797 43.8094C28.7724 44.0586 27.7957 44.6059 27.6037 44.7398C27.4113 44.8741 27.5319 44.8498 27.6037 44.8198C27.7392 44.7467 27.9172 44.658 28.1172 44.5603C28.4004 44.4218 28.7299 44.265 29.052 44.1077C28.9462 44.2869 28.8522 44.4729 28.7707 44.6644C28.3864 45.5717 27.7652 47.4523 29.109 48.5838C30.3947 49.6669 32.6046 49.2548 34.4373 48.1292C36.2703 47.0033 36.6661 46.6075 36.9526 46.1982M30.9771 41.725C30.9135 41.6781 30.9047 41.6156 30.9565 41.572C31.0225 41.5158 31.1069 41.4626 31.2028 41.4447C31.406 41.4069 31.4871 41.6404 31.4055 42.0041C31.251 41.9096 31.0921 41.8103 30.9771 41.725ZM35.181 43.2589C34.2478 43.2632 34.2048 43.0938 34.2223 42.9854C34.2396 42.8775 34.5302 42.5814 34.8989 42.7767C35.0547 42.8595 35.2303 43.0327 35.3927 43.2503C35.321 43.2556 35.2503 43.2583 35.181 43.2589ZM32.3228 48.1664C30.5596 48.6476 28.8398 47.9021 28.7357 46.4259C28.656 45.2987 29.0671 44.4494 29.3322 43.9707C29.5851 43.8457 29.8239 43.7241 30.0214 43.6152C29.5599 44.3585 29.2898 45.3539 29.4703 46.1972C29.6746 47.1525 30.5057 47.7316 31.9127 47.5447C33.3058 47.3601 35.1895 46.0352 35.7236 45.5355C35.8863 45.3552 35.9936 45.1926 36.1399 44.8614C36.2002 44.7254 36.2849 44.5459 36.3163 44.343C36.3369 44.2108 36.3478 44.0695 36.3503 43.9257C36.5161 43.8758 36.6806 43.8216 36.8436 43.7633C36.8998 44.3681 36.9411 44.9643 36.9436 45.4798C36.0756 46.4978 34.0859 47.685 32.3228 48.1664ZM63.1625 44.2955C63.1028 43.3079 62.9587 41.5202 62.8782 40.6134C62.807 39.8063 62.667 38.7001 62.5646 37.7264C62.5438 37.5216 62.5352 37.3158 62.5388 37.11C62.5418 37.0022 62.6498 37.0437 62.7577 37.1546C62.8656 37.2655 63.0343 37.4048 63.0661 37.3878C63.1715 37.3331 63.0453 37.0627 62.8971 36.7717C62.7489 36.4802 62.1614 35.2745 62.0592 35.2287C62.0072 35.2054 61.7319 35.9277 61.716 36.0692C61.7686 36.1563 61.903 36.2913 61.9176 36.6853C61.9324 37.0796 62.1316 38.8923 62.2753 40.3583C62.375 41.3774 62.5038 43.0402 62.5974 44.294C62.5928 44.296 62.6859 45.486 62.696 45.6197C62.7536 46.3896 62.7237 47.3582 62.718 47.5264C62.7116 47.6953 62.8352 47.6659 62.9678 47.2911C63.1028 46.9084 63.1798 46.0541 63.1902 45.2826L63.1625 44.2955ZM58.1563 40.838C57.9755 40.8932 57.6917 40.702 57.7133 40.3011C57.7331 39.939 57.8881 39.5999 57.9478 39.3859C58.03 39.0906 58.0305 38.8059 57.961 38.9673C57.8043 39.3279 57.5126 40.0251 57.4523 40.4982C57.3918 40.9712 57.5452 41.2762 57.7536 41.3802C58.0133 41.5106 58.2003 41.3037 58.3269 40.9988C58.4485 40.7068 58.4255 40.366 58.3411 40.4462C58.2705 40.5301 58.2441 40.8109 58.1563 40.838ZM55.5575 42.2952C55.6534 42.0405 55.6758 41.7908 55.6021 41.9278C55.4359 42.2348 55.1245 42.8278 55.0332 43.2398C54.9423 43.6518 55.0527 43.9307 55.228 44.0363C55.4466 44.1685 55.6265 43.9991 55.7627 43.7395C55.8927 43.4911 55.8993 43.1895 55.8194 43.2548C55.7504 43.3237 55.7046 43.5685 55.6257 43.5865C55.4617 43.6227 55.2277 43.4353 55.2784 43.0838C55.3244 42.7673 55.4879 42.4794 55.5575 42.2952ZM47.99 47.6697C48.1502 47.4097 48.23 47.14 48.1187 47.2762C47.8706 47.5806 47.4008 48.1714 47.2113 48.6047C47.0223 49.038 47.0825 49.3634 47.251 49.5116C47.461 49.6964 47.6953 49.5445 47.8999 49.2864C48.0963 49.039 48.1697 48.7108 48.0669 48.7668C47.9769 48.8298 47.8739 49.0889 47.7832 49.0938C47.5967 49.1028 47.3814 48.8544 47.5134 48.4801C47.6328 48.1423 47.8741 47.8581 47.99 47.6698M61.2575 40.0798C61.0737 40.1258 60.802 39.92 60.8475 39.5206C60.8888 39.1602 61.0644 38.8298 61.1365 38.6196C61.2367 38.3286 61.2539 38.0447 61.1748 38.2017C60.9973 38.5542 60.6642 39.2349 60.5752 39.7044C60.4862 40.1737 60.6207 40.4859 60.8228 40.6007C61.0748 40.7435 61.2731 40.547 61.4183 40.2487C61.5572 39.9635 61.555 39.6221 61.4654 39.6981C61.3901 39.7786 61.3471 40.0575 61.2575 40.0798ZM61.2013 44.9791C61.4527 45.122 61.6521 44.9254 61.7967 44.6271C61.9353 44.342 61.9334 44.0006 61.8444 44.0766C61.7685 44.1566 61.7255 44.4359 61.6359 44.4582C61.4521 44.504 61.1799 44.2984 61.2259 43.8991C61.2673 43.5387 61.4426 43.208 61.5149 42.9981C61.6149 42.7071 61.6321 42.4227 61.5532 42.5801C61.3752 42.9327 61.0427 43.6134 60.9536 44.0824C60.8646 44.5522 60.9991 44.8644 61.2013 44.9791ZM64.415 38.7208C64.536 38.3688 64.5569 38.0251 64.461 38.2153C64.2457 38.6417 63.843 39.4653 63.7352 40.0338C63.6278 40.6018 63.7908 40.9794 64.0354 41.1184C64.3397 41.2911 64.5804 41.0534 64.756 40.6927C64.9234 40.3476 64.921 39.934 64.813 40.0265C64.7218 40.1235 64.6695 40.4608 64.561 40.4879C64.3391 40.5436 64.0096 40.2946 64.0652 39.8115C64.1153 39.3754 64.3276 38.9755 64.415 38.7208Z" fill="white"/>
<path d="M38.732 44.8093C38.93 44.3803 39.0018 43.9508 38.856 44.1794C38.5299 44.6912 37.9155 45.6822 37.7057 46.3842C37.4956 47.0864 37.6512 47.5797 37.9401 47.782C38.3006 48.0333 38.6345 47.7608 38.9021 47.3275C39.1582 46.9119 39.2091 46.3915 39.0615 46.4955C38.9341 46.607 38.824 47.0259 38.6843 47.0479C38.3973 47.0929 38.016 46.743 38.1491 46.1416C38.2696 45.5989 38.5891 45.1197 38.732 44.8093ZM66.4625 49.0625C66.6142 48.9382 67.9339 48.2273 68.1769 48.083C68.1769 48.083 68.4253 47.6778 68.3509 47.6347C68.276 47.5917 67.7942 48.0297 67.4946 48.0419C67.1946 48.0541 66.7841 47.8338 66.7709 47.6532C66.8099 47.517 67.1706 47.3123 67.3009 47.304C67.4313 47.2964 67.4102 47.5932 67.4538 47.6294C67.4973 47.6651 67.6708 47.4245 67.6926 47.3243C67.714 47.2243 67.6962 46.8053 67.4576 46.8653C67.0799 46.9609 66.5102 47.6613 66.4452 47.8816C66.3798 48.1025 66.7318 48.2946 66.9887 48.3993C66.9667 48.4073 66.775 48.4995 66.6537 48.6196C66.6537 48.6196 66.5233 48.7657 66.4625 49.0625ZM61.9625 49.943C62.1142 49.8187 63.4339 49.1083 63.6769 48.9635C63.6769 48.9635 63.9259 48.5583 63.8509 48.5152C63.776 48.4722 63.2942 48.9102 62.9946 48.9224C62.6946 48.9346 62.2841 48.7143 62.2709 48.5337C62.3099 48.3975 62.6706 48.1928 62.8009 48.185C62.9313 48.1769 62.9102 48.4734 62.9538 48.5094C62.9973 48.5456 63.1708 48.305 63.1926 48.2048C63.214 48.1048 63.1956 47.6858 62.9576 47.7458C62.5799 47.8418 62.0102 48.5418 61.9452 48.7626C61.8798 48.983 62.2318 49.1752 62.4882 49.2798C62.4668 49.2878 62.275 49.3798 62.1537 49.5001C62.1537 49.5001 62.0233 49.6462 61.9625 49.943ZM51.8263 37.202C51.9446 37.3395 52.7197 38.3244 53.327 38.9435C53.934 39.5632 54.9745 40.5661 55.739 41.2534C55.8954 41.3943 56.0503 41.5369 56.2036 41.6811C56.3964 43.1615 56.6194 45.0454 56.713 45.8244C56.8053 46.5914 56.819 47.5601 56.821 47.7287C56.8226 47.8977 56.9442 47.8632 57.0598 47.4841C57.2148 46.9753 57.2326 45.658 57.1505 44.7878C57.0995 44.2505 56.9793 43.2438 56.8629 42.3157C57.3143 42.7617 57.7407 43.2041 58.0281 43.5353C58.5564 44.1433 59.001 44.602 59.2719 45.2556C59.4636 45.718 59.4442 46.086 59.5228 46.1586C59.5908 46.2214 59.6658 45.6681 59.5819 45.1315C59.4461 44.2601 59.2599 43.8906 58.1412 42.6465C57.7144 42.1708 57.2121 41.6737 56.721 41.209C56.702 41.0657 56.6848 40.933 56.6692 40.8152C56.6303 40.5242 56.2512 38.0086 56.2214 37.7267C56.1959 37.4813 56.1512 37.1924 56.1548 37.0559C56.1575 36.9472 56.2266 36.9895 56.335 37.1005C56.443 37.2111 56.632 37.4048 56.664 37.3879C56.7697 37.3332 56.652 37.0083 56.5038 36.7168C56.3561 36.4258 55.8475 35.2746 55.7453 35.229C55.6935 35.2057 55.3887 35.9277 55.3731 36.069C55.4259 36.1561 55.5601 36.2919 55.5747 36.6854C55.5787 36.7953 55.6763 37.83 55.7987 38.807C55.9072 39.6703 56.0414 40.489 56.0554 40.5838L56.0559 40.5911C55.5495 40.1292 55.1033 39.7369 54.8327 39.4905C54.1999 38.9155 52.8025 37.5507 52.7463 37.3463C52.7337 37.2818 52.8422 37.3215 53.0416 37.3534C53.2418 37.3856 53.4198 37.4537 53.3878 37.3554C53.3733 37.3091 53.2966 37.1947 53.1057 37.0766C52.9145 36.9584 52.4247 36.652 52.0604 36.4352C51.6954 36.2187 51.5145 36.0371 51.4392 36.089C51.402 36.1146 51.4352 36.8563 51.457 36.9488C51.5482 36.9566 51.7085 37.064 51.8262 37.202" fill="white"/>
<path d="M52.8237 35.8681C52.9736 35.8352 53.6835 35.8531 53.9413 35.9074C53.8333 35.9824 53.107 36.3493 52.9634 36.4367C52.8207 36.5243 52.7846 36.5749 52.8564 36.5663C53.0645 36.5086 53.5337 36.4367 53.7586 36.3194C53.9706 36.2201 54.3319 35.7359 54.4724 35.5554C54.6121 35.3748 54.6121 35.2847 54.5764 35.2363C54.433 35.1583 53.5077 35.08 53.0615 35.1907C52.938 35.2745 52.6964 35.721 52.6608 35.8139C52.6252 35.9074 52.6739 35.901 52.8238 35.8681M56.7725 35.81C56.8935 35.7834 57.4658 35.7978 57.6731 35.8414C57.5863 35.9019 57.0012 36.1977 56.8856 36.2686C56.7698 36.3388 56.741 36.3798 56.7988 36.3727C56.9667 36.3267 57.345 36.2687 57.526 36.1737C57.6967 36.0937 57.9878 35.7034 58.101 35.5583C58.2135 35.4124 58.2135 35.34 58.1848 35.3013C58.0698 35.2377 57.3238 35.1749 56.9642 35.2643C56.8645 35.3316 56.6703 35.6915 56.6416 35.7664C56.6123 35.8414 56.652 35.8366 56.7725 35.81ZM59.9825 35.7688C60.103 35.7422 60.6752 35.7566 60.8825 35.8002C60.7963 35.8607 60.2109 36.1565 60.0951 36.2269C59.9798 36.2975 59.951 36.3385 60.0088 36.3315C60.1767 36.2854 60.5843 36.2269 60.7653 36.1324C60.9363 36.0524 61.1387 35.6621 61.2518 35.5165C61.3649 35.3712 61.3649 35.2982 61.3356 35.26C61.2206 35.1964 60.5333 35.1336 60.1742 35.2225C60.0745 35.2904 59.8798 35.6502 59.851 35.7252C59.8222 35.8002 59.8614 35.7953 59.9825 35.7687M57.98 37.3321C57.79 37.6315 58.0282 37.8731 58.115 38.1149C57.9978 38.222 57.8176 38.1243 57.7573 38.0303C57.6291 37.8376 57.6721 37.4448 57.5212 37.3843C57.4826 37.4904 57.4574 37.6082 57.4574 37.6082C57.4574 37.6082 57.5722 37.8768 57.5434 38.0546C57.525 38.162 57.4303 38.2874 57.3051 38.2899C56.9715 38.2979 57.1358 37.8042 57.0071 37.5243C56.9808 37.5927 56.9619 37.6662 56.9312 37.7303C56.9548 37.8032 56.9676 37.9055 56.9715 37.9645C56.9791 38.0817 56.9698 38.2081 56.9898 38.3081C57.0175 38.4497 57.0961 38.5436 57.2161 38.5527C57.4653 38.5725 57.579 38.3707 57.6165 38.205C57.6595 38.374 57.989 38.56 58.1512 38.3527C58.3659 38.0792 58.1942 37.8449 58.0841 37.5877C58.0047 37.3975 58.0277 37.2727 57.98 37.3321ZM48.6162 36.5382C48.6335 36.6613 48.6968 36.7454 48.8 36.7581C49.0131 36.7851 49.121 36.6157 49.1613 36.4749C49.1895 36.6221 49.4651 36.7953 49.6149 36.6236C49.8129 36.3964 49.6757 36.1878 49.593 35.9616C49.5338 35.794 49.5593 35.6876 49.5155 35.737C49.3375 35.9867 49.5316 36.2052 49.5949 36.4172C49.4886 36.5043 49.3383 36.4129 49.2906 36.3301C49.1893 36.1586 49.2446 35.8221 49.118 35.7636C49.0797 35.8537 49.0526 35.9538 49.0526 35.9538C49.0526 35.9538 49.1383 36.19 49.1049 36.3418C49.0844 36.4337 48.9969 36.5378 48.8885 36.535C48.6012 36.5286 48.7661 36.1098 48.668 35.8639C48.6425 35.9214 48.6225 35.9844 48.5927 36.0376C48.61 36.1019 48.6162 36.19 48.6162 36.2415C48.6184 36.3427 48.6042 36.4506 48.6162 36.5382ZM55.415 48.1362C55.447 48.0853 55.5177 47.9456 55.5 47.8501C55.4823 47.7546 55.3651 47.3563 55.138 47.2565C54.9124 47.1567 54.7415 47.3659 54.6333 47.6569L54.5583 47.6551C54.5404 47.6981 54.518 47.7625 54.5001 47.8787C54.4749 48.0466 54.4273 48.1547 54.1394 48.4161C53.8973 48.6349 53.1128 49.1604 52.6044 49.4073C52.0955 49.6547 51.7293 49.8682 51.5943 49.933C51.4598 49.9968 51.4989 50.0206 51.6334 49.9804C51.7676 49.9404 52.4431 49.7228 52.7124 49.6119C52.9811 49.5002 53.3097 49.3166 53.7058 49.0596C54.1463 48.7739 54.4095 48.4883 54.498 48.235C54.561 48.0545 54.5771 47.9823 54.5771 47.9823C54.5771 47.9823 54.7426 48.08 55.0233 48.1441C55.303 48.2084 55.3824 48.1877 55.415 48.1363M55.0354 47.5703C55.16 47.6176 55.2359 47.7533 55.2584 47.8357C55.1154 47.8389 54.8521 47.7663 54.7401 47.7157C54.8075 47.5852 54.9247 47.5287 55.0354 47.5703Z" fill="white"/>
<path d="M52.4338 48.4164C52.0432 48.3622 51.059 48.2125 50.8182 47.6412C51.0204 47.3464 51.9514 46.9732 53.1177 46.6239C54.284 46.2755 55.5027 45.8232 55.8302 45.6049C55.902 45.5806 56.0408 45.5879 56.0408 45.5879C56.0995 45.419 56.3923 44.8259 56.4106 44.7019C56.0846 44.7203 54.0756 44.8679 53.1832 44.9159C52.2902 44.9639 50.5706 44.9523 49.9976 44.9459C50.349 44.6932 51.1831 44.1999 52.3751 43.779C52.5296 43.7243 52.6726 43.675 52.806 43.6304C52.9051 43.8071 52.9788 43.9819 52.9942 44.1341C53.07 44.0561 53.127 43.7975 53.1078 43.5321C53.8028 43.3103 54.1608 43.2368 54.3152 43.1951C54.4127 43.0687 54.5856 42.5576 54.6113 42.1861C54.5075 41.997 54.1823 41.7614 53.8931 41.5591C53.4946 41.2808 53.0648 41.0381 52.6359 41.1443C52.0495 41.2881 51.9319 42.3654 52.0686 42.5939C52.1122 42.666 52.2154 42.7939 52.3373 42.9517C51.9089 43.1201 51.4608 43.3181 51.0659 43.5263C50.1861 43.9897 49.2039 44.4967 48.9173 44.9842L48.8352 45.0242C48.8122 45.0703 48.6308 45.8247 48.6045 45.906C48.7875 45.8997 50.1537 45.9022 51.1053 45.8726C52.0563 45.8422 52.8879 45.812 53.2136 45.812C52.7312 45.9263 51.4671 46.396 51.1036 46.6723C50.7402 46.9493 50.5117 47.3705 50.5057 48.0925C50.1669 47.9598 49.5372 47.6567 49.0006 46.9309C48.4024 46.122 48.5262 45.2901 48.2868 44.1984C47.9389 42.6141 47.1961 41.2764 46.7335 40.8673C46.5776 41.4264 46.5576 41.8478 46.5576 41.8478C46.5576 41.8478 47.1372 43.1292 47.4306 43.9472C47.7239 44.7654 47.9746 45.5715 47.9622 45.752C47.7206 46.2818 46.2906 47.3915 45.0988 48.041C43.9686 48.657 42.973 48.7233 42.6202 48.2847C42.5509 48.1991 42.5038 48.0978 42.4772 47.9831C42.6306 47.9114 42.7845 47.8392 42.9423 47.7671C43.9585 47.3041 45.7633 46.3297 46.1862 45.8184C46.6425 45.1987 46.6362 44.3263 46.3686 43.8269C46.1021 43.3277 45.6841 42.7499 45.6516 42.5455C45.6261 42.449 45.923 42.5847 46.0983 42.5939C46.1832 42.5875 46.1407 42.4733 45.9586 42.2927C45.8129 42.1489 45.2494 41.6822 45.0341 41.5001C44.9801 41.4538 44.9399 41.4725 44.929 41.5214C44.887 41.7078 44.8013 42.1069 44.7682 42.3039L44.7912 42.4032C44.8531 42.4399 44.9243 42.4812 44.9588 42.5842C45.0076 42.7303 45.1782 43.1381 45.4578 43.6527C45.7381 44.167 46.1429 44.7347 46.1826 45.0214C45.8534 45.4413 44.1932 46.3354 42.5761 47.0724C42.6761 46.7624 42.8338 46.412 43.0431 46.0227C43.1025 45.9569 43.1568 45.8757 43.2071 45.7839C43.3685 45.4892 43.3841 45.1288 43.2863 45.205C43.2025 45.2858 43.1423 45.5783 43.0463 45.598C42.85 45.6383 42.5744 45.4091 42.6437 44.99C42.7065 44.612 42.9087 44.2706 42.996 44.052C43.117 43.7496 43.1502 43.4508 43.0584 43.6134C42.8522 43.9765 42.4652 44.6801 42.3463 45.1716C42.228 45.6624 42.3537 45.9979 42.561 46.1278C42.6385 46.1772 42.7128 46.1927 42.7834 46.183C42.6416 46.453 42.4663 46.7842 42.3384 47.1793C41.6881 47.4703 41.0554 47.7303 40.5316 47.9177C38.6491 48.5917 37.3075 48.9887 36.3691 49.2835L36.3324 49.2999C36.4014 49.0769 36.3921 48.8864 36.3181 48.9436C36.2343 49.0249 36.1743 49.3174 36.0785 49.3366C35.8821 49.3769 35.6065 49.148 35.6755 48.7286C35.7385 48.3506 35.9407 48.0096 36.0281 47.7909C36.1486 47.4888 36.182 47.1894 36.0905 47.3523C35.884 47.7154 35.4972 48.4189 35.3784 48.9102C35.2597 49.4012 35.3854 49.7368 35.5925 49.8669C35.8505 50.029 36.0705 49.8302 36.2392 49.5228L36.2984 49.3964C36.357 49.3964 36.4559 49.3827 36.6035 49.3498C37.0335 49.2531 38.1087 49.0971 39.5869 48.9044C40.6815 48.762 41.4372 48.4614 42.1677 48.1269C42.1641 48.2095 42.1639 48.2923 42.1671 48.3749C42.2069 49.3779 42.8642 49.6611 43.7632 49.4734C44.6304 49.2914 45.8397 48.4961 46.5645 47.9598C47.3202 47.4006 47.7562 46.901 47.8675 46.7268C48.069 46.2995 48.1244 45.8275 48.1381 45.6048C48.2041 46.2182 48.2575 47.0671 48.8376 47.7952C49.3717 48.4652 50.4663 49.4002 52.525 49.4258C52.5318 49.1809 52.4337 48.4164 52.4337 48.4164M52.2977 42.2008C52.5923 41.8701 53.2212 42.0864 53.6932 42.5058C53.4513 42.5625 53.1229 42.6635 52.7605 42.7929C52.5452 42.5333 52.305 42.2831 52.2976 42.2009M40.7236 37.6663C40.8573 37.6053 41.2662 37.4213 41.707 37.1646C42.1468 36.9096 42.5602 36.6006 42.7623 36.3952C42.8398 36.3165 42.9089 36.2549 42.953 36.1817C43.085 36.2364 43.176 36.2932 43.2326 36.3155C43.3178 36.3484 43.4315 36.3957 43.5054 36.1531C43.5791 35.9108 43.4814 35.7543 43.3373 35.5674C43.2153 35.4106 43.022 35.1751 42.865 35.1166C42.732 35.0667 42.6686 35.364 42.689 35.3566H42.778L42.7952 35.365C42.6119 35.4575 42.4701 35.7452 42.4558 35.8462C42.4413 35.9562 42.4621 36.0372 42.7251 36.1048L42.8308 36.1359C42.6114 36.3957 42.2025 36.6644 41.9238 36.8549C41.5286 37.1259 40.9677 37.4644 40.808 37.5622C40.6483 37.6594 40.6617 37.6902 40.7236 37.6663ZM43.099 35.7573L43.1132 35.6274C43.2981 35.8381 43.4353 36.0888 43.4216 36.1243C43.3367 36.1311 43.231 36.0526 43.0461 35.9736C43.0688 35.9028 43.0865 35.8306 43.099 35.7573ZM42.5681 35.7576C42.5671 35.7181 42.6382 35.6082 42.7889 35.5481C42.9393 35.4876 43.0059 35.6565 43.0189 35.8621L42.9743 35.9445L42.8387 35.8976C42.6952 35.8556 42.5982 35.8318 42.5681 35.7576Z" fill="white"/>
<path d="M50.5813 41.6326C50.7982 41.4893 51.3945 41.0588 51.7328 40.7766C51.968 40.5806 52.2444 40.292 52.432 40.0478C52.5397 40.1176 52.649 40.1852 52.7596 40.2504C52.9525 40.3631 53.03 40.5303 53.03 40.5303C53.0656 40.4756 53.2316 40.1763 53.1667 40.0306C53.1277 39.983 52.8906 39.8445 52.6482 39.6961C52.7712 39.4201 52.9404 38.9427 52.698 38.7756C52.4907 38.6337 52.1409 38.8685 51.979 39.1731C51.8453 39.4254 51.828 39.6394 52.083 39.8146C52.1548 39.864 52.2236 39.9106 52.291 39.9549C52.0338 40.2363 51.56 40.6526 51.2227 40.9359C50.8039 41.2864 50.4079 41.6301 50.3388 41.7121L50.3188 41.7441C50.2274 41.4893 50.2523 41.3321 50.1844 41.4166C49.891 41.8767 50.2586 42.2496 50.3923 42.6218C50.2115 42.7858 49.9346 42.6352 49.8417 42.4916C49.6439 42.1943 49.71 41.5906 49.4785 41.4971C49.4188 41.6602 49.3799 41.8418 49.3799 41.8418C49.3799 41.8418 49.556 42.2553 49.5114 42.5283C49.4837 42.6935 49.3374 42.8867 49.1454 42.89C48.6316 42.9031 48.8849 42.143 48.6866 41.7124C48.6464 41.818 48.6176 41.9309 48.5694 42.0287C48.6058 42.1419 48.6258 42.2989 48.631 42.3898C48.6442 42.5704 48.6294 42.7641 48.6598 42.9191C48.7022 43.1369 48.8233 43.2817 49.0082 43.2951C49.3914 43.3263 49.5664 43.0148 49.6245 42.7608C49.6905 43.0206 50.1981 43.3063 50.4475 42.9878C50.7782 42.5666 50.5135 42.206 50.3445 41.8098L50.3246 41.7585C50.3482 41.7668 50.4366 41.7281 50.5813 41.6326ZM52.0801 39.2613C52.2071 39.0255 52.4748 39.0055 52.5551 39.1291C52.6188 39.2273 52.6241 39.4191 52.5281 39.6214C52.2921 39.4732 52.0814 39.3281 52.0801 39.2613Z" fill="white"/>
<path d="M42.2161 40.1334C41.7647 40.1014 41.5218 39.6879 41.3829 39.0905C41.2438 38.4931 41.3289 37.7053 41.3667 37.5035C41.4045 37.3019 41.1917 37.406 41.109 37.8955C41.0268 38.3845 40.9441 39.1665 41.2353 39.9852C41.5259 40.8029 42.0213 41.1081 42.4555 41.0035C42.8897 40.8995 43.2718 39.8806 43.4065 39.4235C43.541 38.9662 44.1428 37.1011 44.4835 37.0008C44.5312 37.2295 44.2187 37.803 44.1187 38.6653C44.0193 39.5276 44.1924 40.6586 45.2869 40.8592C46.3814 41.06 47.124 40.3499 47.3933 39.8563C47.6628 39.3635 47.7885 38.8453 47.8189 38.5851C47.8539 39.2468 48.3054 40.28 49.1821 40.5745C50.0293 40.8592 50.6766 40.5985 50.9625 40.2296C51.2165 39.9019 51.4233 39.227 51.4411 38.7094C51.4583 38.1923 51.0113 37.2459 50.9113 36.9446C50.8111 36.644 50.7593 36.4353 50.7505 36.3312C50.742 36.2272 50.9768 36.4518 51.1245 36.4958C51.2244 36.5158 51.1893 36.2993 51.0677 36.1506C50.9464 36.0025 50.2895 35.0066 50.2435 35.0759C50.2153 35.1174 49.9524 35.8501 49.9351 35.9622C50.0392 36.0306 50.1597 36.219 50.1688 36.3996C50.177 36.5801 50.3509 37.3741 50.5117 37.8152C50.6725 38.2563 50.985 39.1027 51.0069 39.3354C50.6944 39.5557 49.9904 39.8361 49.3219 39.5519C48.6532 39.2668 48.4399 38.8537 48.3662 38.1158C48.3191 37.6443 48.3144 36.7756 48.1462 36.0494C48.0515 35.6388 47.8518 35.2215 47.6146 34.9999C47.5586 35.1359 47.3067 35.9744 47.3067 35.9744C47.3889 36.215 47.6444 37.0251 47.6362 37.7271C47.6272 38.4286 47.5718 39.1151 46.7852 39.5881C45.9991 40.0612 44.8791 39.8728 44.5879 39.1346C44.2967 38.3966 44.9439 36.7364 44.9355 36.2993C44.9267 35.8623 44.8481 35.8017 44.666 35.8741C44.4835 35.9463 44.1096 36.3677 43.7886 37.0532C43.4671 37.7392 43.3244 38.4248 43.1414 39.0024C42.9592 39.58 42.6675 40.1653 42.2161 40.1334ZM29.1095 37.5748C29.665 37.5345 30.1345 37.1133 30.2558 37.0014C30.3774 36.8887 30.4428 36.7208 30.3558 36.7846C29.7132 37.3582 28.8534 37.3744 28.8052 37.278C28.8271 37.1817 29.0533 37.0252 29.3834 36.8049C29.5839 36.6709 29.7625 36.5453 29.8962 36.3673L29.9326 36.3736C30.1772 36.4273 30.4596 36.5342 30.5459 36.4486C30.6864 36.3101 30.705 36.0832 30.5527 35.8386C30.424 35.6309 30.1237 35.4376 29.863 35.2981C29.6028 35.1593 29.5524 35.3809 29.519 35.4599C29.487 35.5336 29.5 35.5964 29.5551 35.5979C29.4713 35.7122 29.4116 35.8593 29.3897 35.9809C29.3755 36.0594 29.387 36.1237 29.419 36.1766C29.4283 36.1916 29.4765 36.2506 29.5677 36.2855L29.6809 36.3207C29.4861 36.5005 29.2618 36.6413 29.144 36.7125C28.9315 36.8409 28.6795 37.0655 28.6014 37.2977C28.5231 37.5307 28.5534 37.615 29.1095 37.5747M30.0915 35.9363L30.1128 35.8178V35.7418C30.2889 35.8699 30.5705 36.1125 30.5533 36.2579C30.4418 36.2326 30.2293 36.1877 30.0273 36.1359C30.0531 36.0753 30.0742 36.0089 30.0915 35.9363ZM29.5694 35.9733C29.4398 35.8699 29.5661 35.7669 29.6809 35.7005C29.8291 35.6149 29.9159 35.6855 29.9918 35.9102C29.9634 35.9765 29.9273 36.0393 29.8841 36.0971C29.7688 36.0614 29.6064 36.0041 29.5694 35.9733ZM30.776 43.8481C30.6163 43.9866 30.5544 44.4374 30.587 44.4645C30.6193 44.4916 31.1184 44.66 31.1964 44.6965L31.2321 44.5607C31.4698 44.7742 31.7333 45.8394 31.7919 45.8424C31.8505 45.8452 31.9355 45.7219 31.9911 45.439C32.0423 45.1766 32.0935 44.7841 32.1469 44.4645C32.1968 44.172 32.2743 44.0046 32.4501 43.9712C32.6262 43.9382 32.7566 44.1639 32.8021 44.3174C32.8021 44.3174 32.9256 44.0224 32.9519 43.839C32.9226 43.7425 32.6487 43.3789 32.4241 43.4992C32.1992 43.6197 32.0584 44.13 32.013 44.4491C31.9672 44.7676 31.9322 45.1627 31.8768 45.2261C31.8188 44.9541 31.6328 44.4673 31.4082 44.1938C31.1556 43.8874 30.8604 43.7749 30.776 43.8481ZM28.6471 43.3036C28.8556 43.2464 29.3248 43.1745 29.5494 43.0572C29.7611 42.958 30.1224 42.4738 30.2626 42.2932C30.4026 42.1126 30.4029 42.022 30.3673 41.9742C30.224 41.8956 29.2985 41.8179 28.852 41.9285C28.7287 42.0118 28.4874 42.4583 28.4518 42.5518C28.4157 42.6447 28.465 42.6388 28.6145 42.6059C28.7644 42.5725 29.4746 42.5905 29.7315 42.6447C29.6245 42.7202 28.898 43.0871 28.7545 43.1745C28.6115 43.2615 28.5754 43.3127 28.6471 43.3036ZM71.6787 45.8885C71.6574 45.3473 71.3922 44.5165 70.3843 43.2416C70.0364 42.8015 69.5469 42.2286 69.0306 41.6419C69.0164 41.4419 69.0021 41.259 68.9893 41.1019C68.9216 40.2944 68.6923 38.6469 68.5937 37.6729C68.5697 37.4272 68.5677 37.1659 68.5713 37.0294C68.5748 36.921 68.6529 36.9354 68.7603 37.0468C68.8676 37.158 69.0331 37.3203 69.0676 37.3092C69.141 37.2839 69.0772 37.038 68.9306 36.7465C68.7844 36.4545 68.2314 35.2736 68.1297 35.2278C68.0774 35.2045 67.8167 35.8978 67.8005 36.0397C67.8523 36.1268 67.9859 36.2623 67.9988 36.6566C68.0125 37.0506 68.2502 39.3779 68.3869 40.8444L68.3943 40.9262C67.6225 40.0645 66.8955 39.2787 66.5964 38.9601C66.5446 38.9049 66.4877 38.8421 66.4263 38.7747C66.3775 38.3824 66.3326 38.0087 66.3017 37.6999C66.2811 37.4861 66.2736 37.2712 66.2792 37.0565C66.2817 36.9483 66.3602 36.963 66.4677 37.0745C66.5756 37.1856 66.7405 37.3479 66.775 37.3363C66.8484 37.3115 66.7846 37.0656 66.6378 36.7736C66.4918 36.4816 65.9152 35.2736 65.813 35.2278C65.7613 35.2045 65.4884 35.9531 65.4723 36.0938C65.5246 36.1815 65.658 36.317 65.6711 36.7113C65.6763 36.8787 65.7199 37.3862 65.778 38.0266C65.2663 37.4186 64.7653 36.7819 64.7297 36.6526C64.7171 36.5887 64.8253 36.628 65.0255 36.6604C65.2249 36.6923 65.412 36.7524 65.38 36.6536C65.365 36.6077 65.2888 36.4932 65.0978 36.3747C64.9067 36.2565 64.4169 35.95 64.0526 35.7337C63.6875 35.5173 63.5067 35.3352 63.4314 35.3871C63.3941 35.4127 63.4273 36.1549 63.4487 36.2468C63.5404 36.2552 63.71 36.3233 63.8179 36.4677C63.9269 36.612 64.6249 37.5905 65.1767 38.2523C65.4081 38.5291 65.641 38.8046 65.8755 39.0788C65.9325 39.6884 65.9922 40.3182 66.0415 40.8444C66.1535 42.0448 66.5561 45.2106 66.56 46.2394C66.2628 46.5184 65.655 46.9073 65.0296 46.9154C64.4043 46.9232 64.0614 46.7586 63.8094 46.2937C63.7316 46.1496 63.6593 46.0047 63.5875 45.8736C63.4172 45.5618 63.037 45.3868 62.6705 45.4726L62.6146 45.4876L62.5149 45.5355C62.2667 45.6654 62.0101 45.8832 61.7592 46.221C61.3253 46.807 61.0482 47.4426 60.7272 47.9932C60.3927 48.5665 60.136 48.9512 59.5493 48.8592C59.1363 48.7944 58.8226 48.4402 58.6293 48.0043C59.1724 47.6285 59.5668 47.1383 59.8553 46.4588C60.2308 45.5758 60.3647 44.5803 60.3313 43.4609C60.2993 42.4074 59.8191 39.9289 59.6923 38.9791C59.5657 38.0287 59.3839 37.2487 59.405 37.0458C59.4247 36.8501 59.7364 37.311 59.896 37.3454C59.9777 37.3272 59.9339 37.0332 59.7788 36.7847C59.6737 36.6158 59.3406 35.8475 59.1226 35.477C59.0201 35.3017 58.9955 35.2002 58.9478 35.1794C58.9007 35.1579 58.5378 35.9331 58.5816 36.0174C58.689 36.1709 58.7624 36.2441 58.7848 36.5191C58.8078 36.7941 59.0565 38.8129 59.274 40.2997C59.4378 41.4216 59.7997 43.4594 59.8462 44.9657C59.8616 45.4572 59.7914 45.81 59.7306 46.007C59.5745 46.3089 59.32 46.6442 58.426 47.2806C58.288 46.3813 58.438 45.6507 58.3071 45.5831C58.1595 45.5991 58.1359 46.0181 58.1192 46.5353C58.111 46.7741 58.1214 47.1048 58.1663 47.4601C57.0683 48.1941 55.6176 48.8623 54.9364 49.2191C54.5368 49.4288 54.6809 49.4777 55.0191 49.3731C55.3574 49.268 57.2164 48.7805 58.2088 48.2586L58.3156 48.1993C58.366 48.3743 58.4271 48.5437 58.5022 48.7C58.836 49.3939 59.3132 49.8059 59.8301 49.7656C60.2648 49.7322 60.5801 49.267 60.8551 48.7121C61.1331 48.1505 61.6028 47.0838 62.0635 46.687C62.2405 46.534 62.4235 46.413 62.6015 46.3403C62.6015 46.3403 62.9162 46.2352 63.2057 46.4243C63.3095 46.4927 63.387 46.59 63.4361 46.6989C63.5503 46.9489 63.6853 47.2669 63.9614 47.5333C64.4479 48.0018 65.2301 47.9051 65.8169 47.6326C66.4027 47.3598 66.7019 46.9344 66.8322 46.4289C67.0546 45.5641 67.019 44.678 66.9766 43.8909C66.9276 42.9927 66.784 42.0747 66.7024 41.1019C66.6761 40.7892 66.6249 40.3542 66.566 39.8824C67.1374 40.5418 67.7306 41.2111 68.0906 41.5771C68.2146 41.7034 68.3456 41.8437 68.4801 41.9919C68.5874 43.4642 68.6907 45.3066 68.7452 46.0797C68.7992 46.8501 68.7644 47.8185 68.7581 47.9869C68.7515 48.1553 68.8451 48.1264 68.9797 47.7526C69.1599 47.2509 69.273 45.9353 69.2336 45.0629C69.21 44.5445 69.1583 43.5995 69.1024 42.7055C69.4925 43.1696 69.872 43.6424 70.2407 44.1237C70.7277 44.7613 71.175 45.5195 71.3314 45.9926C71.4876 46.4661 71.5048 46.6064 71.5352 46.6908C71.5656 46.7752 71.7002 46.4297 71.6788 45.8885M63.455 63.9013C63.411 63.7754 63.2763 63.6831 63.1152 63.6831C62.9541 63.6831 62.8197 63.7754 62.7754 63.9013H61.25C61.2342 63.7314 61.2503 63.5602 61.2976 63.3963L64.4469 63.3944L64.5346 63.5422C64.6147 63.6758 64.7142 63.7968 64.8298 63.9012L63.455 63.9013ZM65.5398 62.4378H61.7553C62.0462 62.2278 62.1987 61.9216 62.1578 61.6117C62.1317 61.4164 61.9382 61.2705 61.7023 61.2507H61.5838C61.2968 61.2787 61.0887 61.4856 61.119 61.7127L61.1305 61.8001L61.1445 61.9345C61.1604 62.1037 61.1444 62.2744 61.0975 62.4378H33.1236C33.539 63.0422 34.2964 63.4128 35.1142 63.4122L60.6408 63.3965C60.3488 63.6067 60.1958 63.9135 60.237 64.224C60.2672 64.4512 60.524 64.613 60.811 64.585C61.0977 64.557 61.3058 64.3501 61.2759 64.1226L61.2643 64.0356H62.7645C62.7909 64.182 62.9371 64.2943 63.1152 64.2943C63.2933 64.2943 63.4396 64.182 63.4662 64.0355H64.9922V64.032C65.3109 64.258 65.7158 64.388 66.1442 64.388C66.5472 64.388 66.8737 64.108 66.8737 63.7625V63.5817C66.8737 62.9501 66.2767 62.4377 65.5399 62.4377" fill="white"/>
</g>
<defs>
<clipPath id="clip0_246_3179">
<rect width="90" height="60" fill="white" transform="translate(5 20)"/>
</clipPath>
</defs>
</svg>
