<svg viewBox="0 0 100 100" fill="none" xmlns="http://www.w3.org/2000/svg">
<g clip-path="url(#clip0_250_2)">
<path d="M5 26.3158H95V73.6842H5V26.3158Z" fill="#B22234"/>
<path d="M5 31.7814H95ZM95 39.0688H5ZM5 46.3563H95ZM95 53.6437H5ZM5 60.9312H95ZM95 68.2186H5Z" fill="black"/>
<path fill-rule="evenodd" clip-rule="evenodd" d="M95 33.6033H5V29.9595H95V33.6033ZM5 37.247H95V40.8907H5V37.247ZM95 48.1782H5V44.5344H95V48.1782ZM5 51.8219H95V55.4656H5V51.8219ZM95 62.7531H5V59.1093H95V62.7531ZM5 66.3968H95V70.0405H5V66.3968Z" fill="white"/>
<path d="M5 26.3158H41V51.8219H5V26.3158Z" fill="#3C3B6E"/>
<path d="M8.00001 27.4089L8.8567 30.0456L6.61386 28.416H9.38617L7.14332 30.0456L8.00001 27.4089Z" fill="white"/>
<path d="M8.00001 32.5101L8.8567 35.1468L6.61386 33.5172H9.38617L7.14332 35.1468L8.00001 32.5101Z" fill="white"/>
<path d="M8.00001 37.6113L8.8567 40.248L6.61386 38.6184H9.38617L7.14332 40.248L8.00001 37.6113Z" fill="white"/>
<path d="M8.00001 42.7125L8.8567 45.3491L6.61386 43.7196H9.38617L7.14332 45.3491L8.00001 42.7125Z" fill="white"/>
<path d="M8.00001 47.8138L8.8567 50.4505L6.61386 48.8209H9.38617L7.14332 50.4505L8.00001 47.8138Z" fill="white"/>
<path d="M11 29.9595L11.8567 32.5962L9.61386 30.9666H12.3862L10.1433 32.5962L11 29.9595Z" fill="white"/>
<path d="M11 35.0607L11.8567 37.6974L9.61386 36.0678H12.3862L10.1433 37.6974L11 35.0607Z" fill="white"/>
<path d="M11 40.162L11.8567 42.7986L9.61386 41.1691H12.3862L10.1433 42.7986L11 40.162Z" fill="white"/>
<path d="M11 45.2632L11.8567 47.8998L9.61386 46.2703H12.3862L10.1433 47.8998L11 45.2632Z" fill="white"/>
<path d="M14 27.4089L14.8567 30.0456L12.6139 28.416H15.3862L13.1433 30.0456L14 27.4089Z" fill="white"/>
<path d="M14 32.5101L14.8567 35.1468L12.6139 33.5172H15.3862L13.1433 35.1468L14 32.5101Z" fill="white"/>
<path d="M14 37.6113L14.8567 40.248L12.6139 38.6184H15.3862L13.1433 40.248L14 37.6113Z" fill="white"/>
<path d="M14 42.7125L14.8567 45.3491L12.6139 43.7196H15.3862L13.1433 45.3491L14 42.7125Z" fill="white"/>
<path d="M14 47.8138L14.8567 50.4505L12.6139 48.8209H15.3862L13.1433 50.4505L14 47.8138Z" fill="white"/>
<path d="M17 29.9595L17.8567 32.5962L15.6139 30.9666H18.3862L16.1433 32.5962L17 29.9595Z" fill="white"/>
<path d="M17 35.0607L17.8567 37.6974L15.6139 36.0678H18.3862L16.1433 37.6974L17 35.0607Z" fill="white"/>
<path d="M17 40.162L17.8567 42.7986L15.6139 41.1691H18.3862L16.1433 42.7986L17 40.162Z" fill="white"/>
<path d="M17 45.2632L17.8567 47.8998L15.6139 46.2703H18.3862L16.1433 47.8998L17 45.2632Z" fill="white"/>
<path d="M20 27.4089L20.8567 30.0456L18.6139 28.416H21.3862L19.1433 30.0456L20 27.4089Z" fill="white"/>
<path d="M20 32.5101L20.8567 35.1468L18.6139 33.5172H21.3862L19.1433 35.1468L20 32.5101Z" fill="white"/>
<path d="M20 37.6113L20.8567 40.248L18.6139 38.6184H21.3862L19.1433 40.248L20 37.6113Z" fill="white"/>
<path d="M20 42.7125L20.8567 45.3491L18.6139 43.7196H21.3862L19.1433 45.3491L20 42.7125Z" fill="white"/>
<path d="M20 47.8138L20.8567 50.4505L18.6139 48.8209H21.3862L19.1433 50.4505L20 47.8138Z" fill="white"/>
<path d="M23 29.9595L23.8567 32.5962L21.6139 30.9666H24.3862L22.1433 32.5962L23 29.9595Z" fill="white"/>
<path d="M23 35.0607L23.8567 37.6974L21.6139 36.0678H24.3862L22.1433 37.6974L23 35.0607Z" fill="white"/>
<path d="M23 40.162L23.8567 42.7986L21.6139 41.1691H24.3862L22.1433 42.7986L23 40.162Z" fill="white"/>
<path d="M23 45.2632L23.8567 47.8998L21.6139 46.2703H24.3862L22.1433 47.8998L23 45.2632Z" fill="white"/>
<path d="M26 27.4089L26.8567 30.0456L24.6139 28.416H27.3862L25.1433 30.0456L26 27.4089Z" fill="white"/>
<path d="M26 32.5101L26.8567 35.1468L24.6139 33.5172H27.3862L25.1433 35.1468L26 32.5101Z" fill="white"/>
<path d="M26 37.6113L26.8567 40.248L24.6139 38.6184H27.3862L25.1433 40.248L26 37.6113Z" fill="white"/>
<path d="M26 42.7125L26.8567 45.3491L24.6139 43.7196H27.3862L25.1433 45.3491L26 42.7125Z" fill="white"/>
<path d="M26 47.8138L26.8567 50.4505L24.6139 48.8209H27.3862L25.1433 50.4505L26 47.8138Z" fill="white"/>
<path d="M29 29.9595L29.8567 32.5962L27.6139 30.9666H30.3862L28.1433 32.5962L29 29.9595Z" fill="white"/>
<path d="M29 35.0607L29.8567 37.6974L27.6139 36.0678H30.3862L28.1433 37.6974L29 35.0607Z" fill="white"/>
<path d="M29 40.162L29.8567 42.7986L27.6139 41.1691H30.3862L28.1433 42.7986L29 40.162Z" fill="white"/>
<path d="M29 45.2632L29.8567 47.8998L27.6139 46.2703H30.3862L28.1433 47.8998L29 45.2632Z" fill="white"/>
<path d="M32 27.4089L32.8567 30.0456L30.6139 28.416H33.3862L31.1433 30.0456L32 27.4089Z" fill="white"/>
<path d="M32 32.5101L32.8567 35.1468L30.6139 33.5172H33.3862L31.1433 35.1468L32 32.5101Z" fill="white"/>
<path d="M32 37.6113L32.8567 40.248L30.6139 38.6184H33.3862L31.1433 40.248L32 37.6113Z" fill="white"/>
<path d="M32 42.7125L32.8567 45.3491L30.6139 43.7196H33.3862L31.1433 45.3491L32 42.7125Z" fill="white"/>
<path d="M32 47.8138L32.8567 50.4505L30.6139 48.8209H33.3862L31.1433 50.4505L32 47.8138Z" fill="white"/>
<path d="M35 29.9595L35.8567 32.5962L33.6139 30.9666H36.3862L34.1433 32.5962L35 29.9595Z" fill="white"/>
<path d="M35 35.0607L35.8567 37.6974L33.6139 36.0678H36.3862L34.1433 37.6974L35 35.0607Z" fill="white"/>
<path d="M35 40.162L35.8567 42.7986L33.6139 41.1691H36.3862L34.1433 42.7986L35 40.162Z" fill="white"/>
<path d="M35 45.2632L35.8567 47.8998L33.6139 46.2703H36.3862L34.1433 47.8998L35 45.2632Z" fill="white"/>
<path d="M38 27.4089L38.8567 30.0456L36.6139 28.416H39.3862L37.1433 30.0456L38 27.4089Z" fill="white"/>
<path d="M38 32.5101L38.8567 35.1468L36.6139 33.5172H39.3862L37.1433 35.1468L38 32.5101Z" fill="white"/>
<path d="M38 37.6113L38.8567 40.248L36.6139 38.6184H39.3862L37.1433 40.248L38 37.6113Z" fill="white"/>
<path d="M38 42.7125L38.8567 45.3491L36.6139 43.7196H39.3862L37.1433 45.3491L38 42.7125Z" fill="white"/>
<path d="M38 47.8138L38.8567 50.4505L36.6139 48.8209H39.3862L37.1433 50.4505L38 47.8138Z" fill="white"/>
</g>
<defs>
<clipPath id="clip0_250_2">
<rect width="90" height="47.3684" fill="white" transform="translate(5 26.3158)"/>
</clipPath>
</defs>
</svg>
