<svg viewBox="0 0 24 24" xmlns="http://www.w3.org/2000/svg">
<path d="M10 18.5C8.90001 18.5 8 19.4 8 20.5C8 21.6 8.90001 22.5 10 22.5C11.1 22.5 12 21.6 12 20.5C12 19.4 11.1 18.5 10 18.5ZM10 21.1667C9.63334 21.1667 9.33333 20.8667 9.33333 20.5C9.33333 20.1333 9.63334 19.8333 10 19.8333C10.3667 19.8333 10.6667 20.1333 10.6667 20.5C10.6667 20.8667 10.3667 21.1667 10 21.1667Z" />
<path d="M18 18.5C16.9 18.5 16 19.4 16 20.5C16 21.6 16.9 22.5 18 22.5C19.1 22.5 20 21.6 20 20.5C20 19.4 19.1 18.5 18 18.5ZM18 21.1667C17.6333 21.1667 17.3332 20.8667 17.3332 20.5C17.3332 20.1333 17.6333 19.8333 18 19.8333C18.3666 19.8333 18.6666 20.1333 18.6666 20.5C18.6666 20.8667 18.3666 21.1667 18 21.1667Z" />
<path d="M8.00316 14.94H20.5783L22 4.06H6.2654L5.66509 1.5H2V2.78H4.65402L7.24486 13.82C6.58136 14.108 6.10742 14.78 6.10742 15.58C6.10742 16.636 6.9605 17.5 8.00316 17.5H20.3254V16.22H8.00316C7.65561 16.22 7.37125 15.932 7.37125 15.58C7.37125 15.228 7.65561 14.94 8.00316 14.94ZM15.902 10.14V13.66H11.7946V10.14H15.902ZM11.7946 8.86V5.34H15.902V8.86H11.7946ZM10.5308 13.66H8.50869L7.6872 10.14H10.5308V13.66ZM17.1659 13.66V10.14H19.9148L19.4407 13.66H17.1659ZM20.0726 8.86H17.1659V5.34H20.5466L20.0726 8.86ZM10.5308 5.34V8.86H7.37125L6.54976 5.34H10.5308Z" />
</svg>
