<svg viewBox="0 0 24 24"  xmlns="http://www.w3.org/2000/svg">
<path d="M14.0021 13.0574C14.2753 13.1926 14.5757 13.2602 14.876 13.2602C15.376 13.2602 15.9071 13.0729 16.2821 12.6983L21.4376 7.51694C21.7813 7.17359 22 6.67418 22 6.14356C22 5.64415 21.8125 5.14473 21.4376 4.77017L19.2504 2.58525C18.4693 1.80492 17.2507 1.80492 16.4696 2.58525L11.3141 7.76665C10.9704 8.10999 10.7517 8.6094 10.7517 9.14003C10.7517 9.45187 10.8369 9.76372 10.9923 10.0376C11.1496 10.3149 11.523 10.3047 11.7486 10.0793L11.8209 10.0071C12.0338 9.79441 12.0015 9.40982 12.0015 9.10882C12.0015 8.92154 12.0952 8.73426 12.2202 8.6094L17.3444 3.49043C17.6256 3.20951 18.0631 3.20951 18.3443 3.49043L20.5315 5.67536C20.6877 5.80021 20.7502 5.98749 20.7502 6.17477C20.7502 6.36205 20.6564 6.54933 20.5315 6.67418L15.376 11.8244C15.2512 11.949 15.0958 12.0183 14.9369 12.0324C14.597 12.0625 14.1805 12.0197 13.9391 12.2609C13.6974 12.5024 13.6958 12.9058 14.0021 13.0574Z" />
<path d="M10.3887 14.5061L14.4985 10.4007C14.7426 10.1569 14.7426 9.76164 14.4985 9.51784C14.2544 9.27404 13.8587 9.27404 13.6147 9.51784L9.50488 13.6232C9.26082 13.867 9.26082 14.2623 9.50488 14.5061C9.74894 14.7499 10.1446 14.7499 10.3887 14.5061Z" />
<path d="M4.74959 21.4382C5.12454 21.8127 5.62447 22 6.12439 22C6.62432 22 7.15549 21.8127 7.53044 21.4382L12.6547 16.2568C12.9984 15.9134 13.2171 15.414 13.2171 14.8834C13.2171 14.572 13.1442 14.2606 12.9984 13.9795C12.8507 13.6945 12.4719 13.6993 12.249 13.9303L12.2031 13.9779C11.9927 14.1957 12.0298 14.5806 12.0298 14.8834C12.0298 15.0707 11.936 15.2579 11.8111 15.3828L6.65556 20.533C6.37436 20.8139 5.93692 20.8139 5.65571 20.533L3.46853 18.3481C3.31231 18.2232 3.24982 18.0359 3.24982 17.8486C3.24982 17.6614 3.34355 17.4741 3.46853 17.3492L8.62402 12.199C8.75447 12.0687 8.91853 11.9989 9.08503 11.9895C9.41534 11.9708 9.81464 12.0153 10.0529 11.7858C10.2977 11.5499 10.3035 11.1478 10.002 10.9907C9.262 10.6052 8.34775 10.7271 7.71791 11.3563L2.56242 16.5065C2.21872 16.8498 2 17.3492 2 17.8799C2 18.3793 2.21872 18.8787 2.56242 19.2532L4.74959 21.4382Z" />
</svg>
