<svg viewBox="0 0 24 24" xmlns="http://www.w3.org/2000/svg">
<path d="M22 5.125H8.25V6.375H22V5.125Z" />
<path d="M22 17.625H8.25V18.875H22V17.625Z" />
<path d="M4.1875 16.0625C2.96875 16.0625 2 17.0312 2 18.25C2 19.4688 2.96875 20.4375 4.1875 20.4375C5.40625 20.4375 6.375 19.4688 6.375 18.25C6.375 17.0312 5.40625 16.0625 4.1875 16.0625ZM4.1875 19.1875C3.65625 19.1875 3.25 18.7813 3.25 18.25C3.25 17.7187 3.65625 17.3125 4.1875 17.3125C4.71875 17.3125 5.125 17.7187 5.125 18.25C5.125 18.7813 4.71875 19.1875 4.1875 19.1875Z" />
<path d="M4.1875 9.8125C2.96875 9.8125 2 10.7812 2 12C2 13.2188 2.96875 14.1875 4.1875 14.1875C5.40625 14.1875 6.375 13.2188 6.375 12C6.375 10.7812 5.40625 9.8125 4.1875 9.8125ZM4.1875 12.9375C3.65625 12.9375 3.25 12.5313 3.25 12C3.25 11.4687 3.65625 11.0625 4.1875 11.0625C4.71875 11.0625 5.125 11.4687 5.125 12C5.125 12.5313 4.71875 12.9375 4.1875 12.9375Z" />
<path d="M4.1875 3.5625C2.96875 3.5625 2 4.53125 2 5.75C2 6.96875 2.96875 7.9375 4.1875 7.9375C5.40625 7.9375 6.375 6.96875 6.375 5.75C6.375 4.53125 5.40625 3.5625 4.1875 3.5625ZM4.1875 6.6875C3.65625 6.6875 3.25 6.28125 3.25 5.75C3.25 5.21875 3.65625 4.8125 4.1875 4.8125C4.71875 4.8125 5.125 5.21875 5.125 5.75C5.125 6.28125 4.71875 6.6875 4.1875 6.6875Z" />
<path d="M22 11.375H8.25V12.625H22V11.375Z" />
</svg>
