<svg viewBox="0 0 24 24" xmlns="http://www.w3.org/2000/svg">
<path d="M17.0973 21.9859C14.2263 21.9859 10.4504 19.9887 7.20499 16.7745C2.86735 12.4057 0.901375 7.16307 2.6177 4.47935C2.68012 4.32332 2.77374 4.1985 2.89856 4.10488L4.49007 2.51338C4.83333 2.20132 5.27022 2.01408 5.76951 2.01408C6.33122 2.01408 6.86172 2.26373 7.29861 2.66941L10.1384 5.50915C10.9497 6.32051 11.0121 7.56875 10.2632 8.28649L8.45323 10.0964C9.17097 11.1262 10.0135 12.1248 10.9185 13.061C11.8547 13.9972 12.8533 14.8085 13.8831 15.5263L15.693 13.7163C16.0363 13.3731 16.4732 13.217 16.9725 13.217C17.5342 13.217 18.0647 13.4667 18.5016 13.8724L21.3413 16.7121C21.7158 17.0866 21.9342 17.5859 21.9966 18.0852C22.0278 18.6157 21.8406 19.1462 21.4973 19.4894L19.9058 21.0809C19.8122 21.1746 19.6874 21.2682 19.5314 21.3618C18.8448 21.7675 18.0335 21.9859 17.0973 21.9859ZM5.76951 3.26232C5.64469 3.26232 5.48866 3.29353 5.39504 3.41835L3.77233 5.00986C3.77233 5.00986 3.74112 5.04106 3.74112 5.07227L3.70992 5.13468C2.27444 7.28789 4.20921 12 8.10996 15.8695C11.0433 18.8341 14.5696 20.7377 17.0973 20.7377C17.815 20.7377 18.3767 20.5816 18.8448 20.3008L18.9072 20.2696C18.9697 20.2384 18.9697 20.2384 18.9697 20.2384L20.5612 18.6469C20.7172 18.4908 20.7172 18.3036 20.7172 18.21C20.7172 17.9916 20.5924 17.8043 20.4363 17.6171L17.5966 14.7461C17.4094 14.5589 17.1909 14.4653 16.9725 14.4653C16.8476 14.4653 16.6916 14.4965 16.598 14.6213L14.7568 16.4625C14.3512 16.8681 13.6958 16.8993 13.2277 16.5561C12.1355 15.8071 11.0745 14.9022 10.1071 13.9348C9.10855 12.9362 8.23479 11.9064 7.48584 10.8142C7.14258 10.3149 7.17378 9.65955 7.57946 9.28508L9.42061 7.44392C9.67026 7.19428 9.60785 6.72619 9.29579 6.41413L6.45604 3.57438C6.2064 3.35594 5.98795 3.26232 5.76951 3.26232Z" />
</svg>
