<svg viewBox="0 0 24 24" xmlns="http://www.w3.org/2000/svg">
<path d="M21.8915 9.75194C21.7054 8.13953 18.8527 7.27132 16.031 7.27132C15.2868 7.27132 14.5426 7.33333 13.8605 7.45736V4.48062H13.8295C13.6744 2.86822 10.8217 2 7.96899 2C5.11627 2 2.26356 2.86822 2.10852 4.48062H2.07751V19.3643C2.07751 21.1008 5.05426 22 7.96899 22C10.6357 22 13.3333 21.2558 13.7984 19.7985C14.4806 19.9225 15.2558 19.9845 16.031 19.9845C18.9457 19.9845 21.9225 19.0853 21.9225 17.3488L21.8915 9.75194ZM20.6822 9.90698C20.6822 10.4031 18.9147 11.3023 16.031 11.3023C15.2558 11.3023 14.5426 11.2403 13.8605 11.1163V8.69767C14.5426 8.57364 15.2558 8.51163 16.031 8.51163C18.9147 8.51163 20.6822 9.41085 20.6822 9.90698ZM7.96899 3.24031C10.8527 3.24031 12.6202 4.13953 12.6202 4.63566C12.6202 5.13178 10.8527 6.03101 7.96899 6.03101C5.08527 6.03101 3.31782 5.13178 3.31782 4.63566C3.31782 4.13953 5.08527 3.24031 7.96899 3.24031ZM3.31782 6.31008C4.46511 6.93023 6.20155 7.27132 7.96899 7.27132C9.73643 7.27132 11.4729 6.93023 12.6202 6.31008V8.20155C12.6202 8.69767 10.8527 9.5969 7.96899 9.5969C5.08527 9.5969 3.31782 8.69767 3.31782 8.20155V6.31008ZM3.31782 9.87597C4.46511 10.4961 6.20155 10.8372 7.96899 10.8372C9.73643 10.8372 11.4729 10.4961 12.6202 9.87597V11.9225C12.6202 12.4186 10.8527 13.3178 7.96899 13.3178C5.08527 13.3178 3.31782 12.4186 3.31782 11.9225V9.87597ZM3.31782 13.5969C4.46511 14.2171 6.20155 14.5581 7.96899 14.5581C9.73643 14.5581 11.4729 14.2171 12.6202 13.5969V15.6434C12.6202 16.1395 10.8527 17.0388 7.96899 17.0388C5.08527 17.0388 3.31782 16.1395 3.31782 15.6434V13.5969ZM7.96899 20.7597C5.08527 20.7597 3.31782 19.8605 3.31782 19.3643V17.3178C4.46511 17.938 6.20155 18.2791 7.96899 18.2791C9.73643 18.2791 11.4729 17.938 12.6202 17.3178V19.3643C12.6202 19.8605 10.8527 20.7597 7.96899 20.7597ZM16.031 18.7442C15.2558 18.7442 14.5426 18.6822 13.8605 18.5581V16.1085C14.5426 16.2326 15.2868 16.2946 16.031 16.2946C17.7984 16.2946 19.5349 15.9535 20.6822 15.3333V17.3798C20.6822 17.845 18.9147 18.7442 16.031 18.7442ZM16.031 15.0233C15.2868 15.0233 14.5426 14.9612 13.8605 14.8372V12.3876C14.5426 12.5116 15.2868 12.5736 16.031 12.5736C17.7984 12.5736 19.5349 12.2326 20.6822 11.6124V13.6589C20.6822 14.124 18.9147 15.0233 16.031 15.0233Z" />
</svg>
