<svg viewBox="0 0 24 24"  xmlns="http://www.w3.org/2000/svg">
<path fill-rule="evenodd" clip-rule="evenodd" d="M2 6.73684H22V7.54688H2V6.73684ZM2 8.35691H22V9.16695H2V8.35691ZM2 9.97491H22V10.787H2V9.97491ZM2 11.595H22V12.405H2V11.595ZM2 13.215H22V14.0251H2V13.215ZM2 14.833H22V15.6431H2V14.833ZM2 16.4531H22V17.2632H2V16.4531Z" fill="#BD3D44"/>
<path fill-rule="evenodd" clip-rule="evenodd" d="M2 7.54688H22V8.3569H2V7.54688ZM2 9.16693H22V9.97491H2V9.16693ZM2 10.785H22V11.595H2V10.785ZM2 12.405H22V13.215H2V12.405ZM2 14.0251H22V14.8351H2V14.0251ZM2 15.6431H22V16.4531H2V15.6431Z" fill="white"/>
<path fill-rule="evenodd" clip-rule="evenodd" d="M2 6.73684H9.99958V12.405H2V6.73684Z" fill="#192F5D"/>
<path fill-rule="evenodd" clip-rule="evenodd" d="M2.66612 6.97945L2.74013 7.2035H2.97452L2.78535 7.34127L2.85733 7.56741L2.66612 7.4276L2.47697 7.56535L2.54893 7.34127L2.35774 7.2035H2.59623L2.66612 6.97945ZM4.00042 6.97945L4.07237 7.2035H4.3088L4.11759 7.34127L4.18956 7.56741L4.00042 7.4276L3.80921 7.56535L3.88116 7.34127L3.69202 7.2035H3.92641L4.00042 6.97945ZM5.33266 6.97945L5.40667 7.20353H5.63899L5.44985 7.34129L5.52178 7.56743L5.33059 7.42763L5.14145 7.56537L5.2134 7.34129L5.02219 7.20353H5.25864L5.33266 6.97945ZM6.66695 6.97945L6.73888 7.20353H6.97533L6.78413 7.34129L6.85814 7.56743L6.66693 7.42763L6.47575 7.56537L6.54976 7.34129L6.35855 7.20353H6.59294L6.66695 6.97945ZM7.99919 6.97945L8.0732 7.20353H8.30757L8.11842 7.34129L8.19038 7.56743L7.99917 7.42763L7.81002 7.56537L7.882 7.34129L7.69285 7.20353H7.92722L7.99919 6.97945ZM9.33347 6.97945L9.40542 7.20353H9.64187L9.45066 7.34129L9.52467 7.56743L9.33347 7.42763L9.14226 7.56537L9.21628 7.34129L9.02509 7.20353H9.26152L9.33347 6.97945ZM3.3343 7.54684L3.40625 7.77096H3.64268L3.45147 7.90868L3.52138 8.1328L3.33634 7.99504L3.14515 8.13278L3.21298 7.9087L3.02796 7.77094H3.26235L3.3343 7.54684ZM4.66654 7.54684L4.74055 7.77096H4.97491L4.78371 7.90868L4.85774 8.1328L4.66651 7.99504L4.47533 8.13278L4.54934 7.9087L4.35814 7.77094H4.59456L4.66654 7.54684ZM6.00084 7.54684L6.07277 7.77096H6.30921L6.11801 7.90868L6.18996 8.1328L6.00081 7.99504L5.80963 8.13278L5.88158 7.90872L5.69244 7.77096H5.92682L6.00084 7.54684ZM7.33307 7.54684L7.40709 7.77096H7.64145L7.45024 7.90868L7.52426 8.1328L7.33305 7.99504L7.14391 8.13278L7.21588 7.9087L7.02467 7.77094H7.26316L7.33307 7.54684ZM8.66735 7.54684L8.7393 7.77096H8.97575L8.78454 7.90868L8.85649 8.1328L8.66735 7.99504L8.47614 8.13278L8.54812 7.9087L8.35897 7.77094H8.59334L8.66735 7.54684ZM2.66612 8.11228L2.74013 8.34048H2.97452L2.78535 8.47822L2.85733 8.70232L2.66612 8.56252L2.47697 8.70232L2.54893 8.47616L2.35774 8.33844H2.59623L2.66612 8.11228ZM4.00042 8.11228L4.07237 8.33837H4.3088L4.11759 8.47611L4.18956 8.70024L4.00042 8.56041L3.80921 8.70021L3.88116 8.47407L3.69202 8.33633H3.92641L4.00042 8.11228ZM5.33266 8.11228L5.40667 8.33842H5.63899L5.44985 8.47616L5.52178 8.70028L5.33059 8.56046L5.14145 8.70026L5.2134 8.47412L5.02219 8.33638H5.25864L5.33266 8.11228ZM6.66695 8.11228L6.73888 8.33842H6.97533L6.78413 8.47616L6.85814 8.70028L6.66693 8.56046L6.47575 8.70026L6.54976 8.47412L6.35855 8.33638H6.59294L6.66695 8.11228ZM7.99919 8.11228L8.0732 8.33842H8.30757L8.11842 8.47614L8.19038 8.70026L7.99917 8.56043L7.81002 8.70024L7.882 8.4741L7.69285 8.33635H7.92722L7.99919 8.11228ZM9.33347 8.11228L9.40542 8.33842H9.64187L9.45066 8.47616L9.52467 8.70028L9.33347 8.56046L9.14226 8.70026L9.21628 8.47412L9.02509 8.33638H9.26152L9.33347 8.11228ZM3.3343 8.67969L3.40625 8.90379H3.64268L3.45147 9.04151L3.52344 9.26767L3.3343 9.12787L3.14309 9.26561L3.21505 9.04153L3.0259 8.90379H3.26031L3.3343 8.67969ZM4.66654 8.67969L4.74055 8.90379H4.97491L4.78371 9.04151L4.85774 9.26767L4.66651 9.12787L4.47533 9.26561L4.54934 9.04153L4.35814 8.90379H4.59456L4.66654 8.67969ZM6.00084 8.67969L6.07277 8.90379H6.30921L6.11801 9.04151L6.18996 9.26767L6.00081 9.12787L5.80963 9.26561L5.88158 9.04153L5.69244 8.90379H5.92682L6.00084 8.67969ZM7.33307 8.67969L7.40709 8.90379H7.64145L7.4523 9.04151L7.52426 9.26767L7.33305 9.12787L7.14391 9.26561L7.21588 9.04153L7.02467 8.90379H7.26316L7.33307 8.67969ZM8.66735 8.67969L8.7393 8.90379H8.97575L8.78454 9.04151L8.85649 9.26767L8.66735 9.12787L8.47614 9.26561L8.54812 9.04153L8.35897 8.90379H8.59334L8.66735 8.67969ZM2.66612 9.24712L2.74013 9.47122H2.97452L2.78535 9.60894L2.85733 9.83511L2.66612 9.6953L2.47697 9.83304L2.54893 9.60896L2.35774 9.47122H2.59623L2.66612 9.24712ZM4.00042 9.24712L4.07237 9.47122H4.3088L4.11759 9.60894L4.18956 9.83307L4.00042 9.6953L3.80921 9.83304L3.88116 9.60896L3.69202 9.47122H3.92641L4.00042 9.24712ZM5.33266 9.24712L5.40667 9.47122H5.63899L5.44985 9.60894L5.52178 9.83511L5.33059 9.6953L5.14145 9.83304L5.2134 9.60896L5.02219 9.47122H5.25864L5.33266 9.24712ZM6.66695 9.24712L6.73888 9.47122H6.97533L6.78413 9.60894L6.85814 9.83511L6.66693 9.6953L6.47575 9.83304L6.54976 9.60896L6.35855 9.47122H6.59294L6.66695 9.24712ZM7.99919 9.24712L8.0732 9.47122H8.30757L8.11842 9.60894L8.19038 9.83511L7.99917 9.6953L7.81002 9.83304L7.882 9.60896L7.69285 9.47122H7.92722L7.99919 9.24712ZM9.33347 9.24712L9.40542 9.47122H9.64187L9.45066 9.60894L9.52467 9.83511L9.33347 9.6953L9.14226 9.83304L9.21628 9.60896L9.02509 9.47122H9.26152L9.33347 9.24712ZM3.3343 9.81456L3.40625 10.0387H3.64268L3.45147 10.1764L3.52344 10.4005L3.3343 10.2607L3.14309 10.4005L3.21505 10.1743L3.0259 10.0366H3.26031L3.3343 9.81456ZM4.66654 9.81456L4.74055 10.0387H4.97491L4.78371 10.1764L4.85774 10.4005L4.66651 10.2607L4.47533 10.4005L4.54934 10.1743L4.35814 10.0366H4.59456L4.66654 9.81456ZM6.00084 9.81456L6.07277 10.0387H6.30921L6.11801 10.1764L6.18996 10.4005L6.00081 10.2607L5.80963 10.4005L5.88158 10.1743L5.69244 10.0366H5.92682L6.00084 9.81456ZM7.33307 9.81456L7.40709 10.0387H7.64145L7.4523 10.1764L7.52426 10.4005L7.33305 10.2607L7.14391 10.4005L7.21588 10.1743L7.02467 10.0366H7.26316L7.33307 9.81456ZM8.66735 9.81456L8.7393 10.0387H8.97575L8.78454 10.1764L8.85649 10.4005L8.66735 10.2607L8.47614 10.4005L8.54812 10.1743L8.35897 10.0366H8.59334L8.66735 9.81456ZM2.66612 10.3799L2.74013 10.6061H2.97452L2.78535 10.7438L2.85733 10.9659L2.66612 10.8281L2.47697 10.9659L2.54893 10.7418L2.35774 10.604H2.59623L2.66612 10.3799ZM4.00042 10.3799L4.07237 10.6061H4.3088L4.11759 10.7438L4.19162 10.9659L4.0004 10.8281L3.80921 10.9659L3.88323 10.7418L3.69202 10.604H3.92641L4.00042 10.3799ZM5.33266 10.3799L5.40667 10.6061H5.63899L5.44985 10.7438L5.52178 10.9659L5.33059 10.8281L5.14145 10.9659L5.2134 10.7418L5.02219 10.604H5.25864L5.33266 10.3799ZM6.66695 10.3799L6.73888 10.6061H6.97533L6.78413 10.7438L6.85814 10.9659L6.66693 10.8281L6.47575 10.9659L6.54976 10.7418L6.35855 10.604H6.59294L6.66695 10.3799ZM7.99919 10.3799L8.0732 10.6061H8.30757L8.11842 10.7438L8.19038 10.9659L7.99917 10.8281L7.81002 10.9659L7.882 10.7418L7.69285 10.604H7.92722L7.99919 10.3799ZM9.33347 10.3799L9.40542 10.6061H9.64187L9.45066 10.7438L9.52467 10.9659L9.33347 10.8281L9.14226 10.9659L9.21628 10.7418L9.02509 10.604H9.26152L9.33347 10.3799ZM3.3343 10.9474L3.40625 11.1715H3.64268L3.45147 11.3092L3.52344 11.5354L3.3343 11.3956L3.14309 11.5333L3.21505 11.3092L3.0259 11.1715H3.26031L3.3343 10.9474ZM4.66654 10.9474L4.74055 11.1715H4.97491L4.78371 11.3092L4.85774 11.5354L4.66651 11.3956L4.47533 11.5333L4.54934 11.3092L4.35814 11.1715H4.59456L4.66654 10.9474ZM6.00084 10.9474L6.07277 11.1715H6.30921L6.11801 11.3092L6.18996 11.5354L6.00081 11.3956L5.80963 11.5333L5.88158 11.3092L5.69244 11.1715H5.92682L6.00084 10.9474ZM7.33307 10.9474L7.40709 11.1715H7.64145L7.4523 11.3092L7.52426 11.5354L7.33305 11.3956L7.14391 11.5333L7.21588 11.3092L7.02467 11.1715H7.26316L7.33307 10.9474ZM8.66735 10.9474L8.7393 11.1715H8.97575L8.78454 11.3092L8.85649 11.5354L8.66735 11.3956L8.47614 11.5333L8.54812 11.3092L8.35897 11.1715H8.59334L8.66735 10.9474ZM2.66612 11.5148L2.74013 11.7389H2.97452L2.78535 11.8766L2.85733 12.1007L2.66612 11.963L2.47697 12.1007L2.54893 11.8746L2.35774 11.7368H2.59623L2.66612 11.5148ZM4.00042 11.5148L4.07237 11.7389H4.3088L4.11759 11.8766L4.19162 12.1007L4.0004 11.963L3.80921 12.1007L3.88323 11.8746L3.69202 11.7368H3.92641L4.00042 11.5148ZM5.33266 11.5148L5.40667 11.7389H5.63899L5.45395 11.8766L5.5259 12.1007L5.33469 11.963L5.14555 12.1007L5.21752 11.8746L5.02632 11.7368H5.26274L5.33266 11.5148ZM6.66695 11.5148L6.73888 11.7389H6.97533L6.78413 11.8766L6.85814 12.1007L6.66693 11.963L6.47575 12.1007L6.54976 11.8746L6.35855 11.7368H6.59294L6.66695 11.5148ZM7.99919 11.5148L8.0732 11.7389H8.30757L8.11842 11.8766L8.19038 12.1007L7.99917 11.963L7.81002 12.1007L7.882 11.8746L7.69285 11.7368H7.92722L7.99919 11.5148ZM9.33347 11.5148L9.40542 11.7389H9.64187L9.45066 11.8766L9.52467 12.1007L9.33347 11.963L9.14226 12.1007L9.21628 11.8746L9.02509 11.7368H9.26152L9.33347 11.5148Z" fill="white"/>
</svg>
