<svg viewBox="0 0 100 100" xmlns="http://www.w3.org/2000/svg">
<path d="M5.2233 58.7439V41.4114L20.5557 35.7451L28.8883 38.4116V61.7436L20.5557 64.2553L5.2233 58.7439L20.5557 60.5889V40.4117L10.5561 42.7449V56.4109L5.2233 58.7439Z" fill="#EB3C00"/>
<path d="M45.218 58.8655C42.8045 58.8655 40.8717 58.0702 39.4196 56.4796C37.9676 54.8891 37.2415 52.8198 37.2415 50.2717C37.2415 47.5337 37.9814 45.3498 39.4611 43.7198C40.9409 42.0896 42.9548 41.2746 45.5028 41.2746C47.8531 41.2746 49.7463 42.0659 51.1825 43.6485C52.6187 45.2312 53.3369 47.3004 53.3369 49.8565C53.3368 52.634 52.6009 54.8299 51.1291 56.4443C49.6572 58.0585 47.6869 58.8655 45.218 58.8655ZM45.3604 43.0785C43.5721 43.0785 42.12 43.7234 41.0043 45.0132C39.8885 46.3031 39.3306 47.9965 39.3306 50.0935C39.3306 52.1905 39.8746 53.878 40.9627 55.1559C42.0507 56.4339 43.4691 57.0729 45.218 57.0729C47.0855 57.0729 48.5573 56.4636 49.6335 55.245C50.7097 54.0264 51.2478 52.3211 51.2478 50.1291C51.2477 47.8818 50.7255 46.1448 49.681 44.9183C48.6364 43.6918 47.1963 43.0785 45.3604 43.0785Z" fill="#EB3C00"/>
<path d="M60.4295 40.3236C59.3296 40.3236 58.4156 40.6983 57.6796 41.4381C56.9437 42.178 56.5755 43.1848 56.5755 44.4588V46.4274H54.5027V48.094H56.5755V58.5828H58.5129V48.094H63.2522V58.5828H65.1896V48.094H68.0332V46.4274H65.1896V44.5525C65.1896 42.8354 65.8701 41.9797 67.2312 41.9797C67.7139 41.9798 68.143 42.0786 68.5228 42.2922V40.5423C68.1746 40.3999 67.71 40.3236 67.1166 40.3236C66.0167 40.3236 65.0923 40.6982 64.3564 41.4381C63.6205 42.178 63.2522 43.1848 63.2522 44.4587V46.4274H58.5129V44.5525C58.5129 42.8353 59.1934 41.9797 60.5545 41.9797C61.0371 41.9797 61.4662 42.0785 61.8461 42.2922V40.5423C61.4979 40.3999 61.023 40.3236 60.4295 40.3236Z" fill="#EB3C00"/>
<path d="M70.8643 43.3379C70.5161 43.3379 70.2194 43.2192 69.9741 42.9818C69.7288 42.7444 69.6061 42.4438 69.6061 42.0797C69.6061 41.7157 69.7288 41.413 69.9741 41.1717C70.2194 40.9304 70.5161 40.8097 70.8643 40.8097C71.2204 40.8097 71.523 40.9304 71.7723 41.1717C72.0215 41.4131 72.1462 41.7158 72.1462 42.0797C72.1462 42.4279 72.0215 42.7246 71.7723 42.9699C71.523 43.2152 71.2203 43.3379 70.8643 43.3379ZM71.8138 58.5786H69.8672V46.424H71.8138V58.5786Z" fill="#EB3C00"/>
<path d="M82.873 58.0207C81.9392 58.5826 80.8314 58.8634 79.5495 58.8634C77.8164 58.8634 76.4178 58.2996 75.3535 57.172C74.2892 56.0444 73.757 54.5824 73.757 52.7861C73.757 50.7841 74.3307 49.1758 75.4781 47.9611C76.6255 46.7464 78.1567 46.1391 80.0717 46.1391C81.14 46.1391 82.0816 46.3369 82.8966 46.7326V48.7267C81.9945 48.0937 81.0292 47.7771 80.0005 47.7771C78.7581 47.7771 77.7392 48.2222 76.944 49.1125C76.1487 50.0027 75.7511 51.1719 75.7511 52.62C75.7511 54.0444 76.125 55.168 76.8728 55.991C77.6205 56.814 78.6235 57.2255 79.8818 57.2254C80.9421 57.2254 81.9392 56.8733 82.8729 56.169L82.873 58.0207Z" fill="#EB3C00"/>
<path d="M94.7723 52.9887H86.1906C86.2222 54.3419 86.5862 55.3864 87.2826 56.1223C87.9789 56.8582 88.9365 57.2261 90.1551 57.2261C91.5241 57.2262 92.7823 56.7751 93.9296 55.873V57.7009C92.8614 58.4764 91.4489 58.8642 89.6922 58.8642C87.975 58.8642 86.6259 58.3122 85.6446 57.2083C84.6634 56.1045 84.1727 54.5515 84.1727 52.5495C84.1727 50.6582 84.7088 49.1172 85.7811 47.9262C86.8533 46.7353 88.1847 46.1399 89.7753 46.1399C91.3658 46.1399 92.5963 46.6542 93.4668 47.683C94.3372 48.7117 94.7724 50.14 94.7724 51.9679L94.7723 52.9887ZM92.7782 51.3388C92.7703 50.2152 92.4993 49.3408 91.9652 48.7156C91.431 48.0905 90.6892 47.7779 89.7396 47.7779C88.8217 47.7779 88.0422 48.1063 87.4013 48.7631C86.7603 49.4199 86.3646 50.2785 86.2143 51.3388H92.7782Z" fill="#EB3C00"/>
</svg>
